<?xml version="1.0" encoding="UTF-8" standalone="no"?>
<!-- Created with Inkscape (http://www.inkscape.org/) -->

<svg
   xmlns:dc="http://purl.org/dc/elements/1.1/"
   xmlns:cc="http://creativecommons.org/ns#"
   xmlns:rdf="http://www.w3.org/1999/02/22-rdf-syntax-ns#"
   xmlns:svg="http://www.w3.org/2000/svg"
   xmlns="http://www.w3.org/2000/svg"
   xmlns:sodipodi="http://sodipodi.sourceforge.net/DTD/sodipodi-0.dtd"
   xmlns:inkscape="http://www.inkscape.org/namespaces/inkscape"
   width="733.47711mm"
   height="45.850849mm"
   viewBox="0 0 733.47711 45.850849"
   version="1.1"
   id="svg8"
   sodipodi:docname="GoldenSwitzerland_Logo2.svg"
   inkscape:version="0.92.2 (5c3e80d, 2017-08-06)">
  <defs
     id="defs2" />
  <sodipodi:namedview
     id="base"
     pagecolor="#ffffff"
     bordercolor="#666666"
     borderopacity="1.0"
     inkscape:pageopacity="0.0"
     inkscape:pageshadow="2"
     inkscape:zoom="0.35"
     inkscape:cx="1892.7242"
     inkscape:cy="364.49025"
     inkscape:document-units="mm"
     inkscape:current-layer="g4582"
     showgrid="false"
     inkscape:window-width="1920"
     inkscape:window-height="1017"
     inkscape:window-x="-8"
     inkscape:window-y="-8"
     inkscape:window-maximized="1" />
  <metadata
     id="metadata5">
    <rdf:RDF>
      <cc:Work
         rdf:about="">
        <dc:format>image/svg+xml</dc:format>
        <dc:type
           rdf:resource="http://purl.org/dc/dcmitype/StillImage" />
        <dc:title></dc:title>
      </cc:Work>
    </rdf:RDF>
  </metadata>
  <g
     inkscape:label="Layer 1"
     inkscape:groupmode="layer"
     id="layer1"
     transform="translate(-24.33682,-81.955379)">
    <g
       id="g4582"
       transform="matrix(0.26458592,0,0,0.26458592,22.980951,34.986904)">
      <g
         id="g4960"
         transform="matrix(1.4540897,0,0,1.4540897,-2.3269801,-159.29913)">
        <g
           transform="matrix(0,-0.77658653,0.77658653,0,73.300871,521.47175)"
           id="g4735">
          <g
             id="g4550"
             transform="matrix(0,0.3997446,-0.3997446,0,396.78722,-88.130083)">
            <g
               id="g4506">
              <path
                 id="path4504"
                 d="M 320.071,239.232 H 191.996 c -10.36,0 -18.241,-9.303 -16.538,-19.522 l 11.177,-67.063 c 1.347,-8.084 8.342,-14.009 16.538,-14.009 h 105.72 c 8.196,0 15.19,5.925 16.538,14.009 l 11.177,67.063 c 1.704,10.219 -6.177,19.522 -16.537,19.522 z"
                 style="fill:#ffe07d"
                 inkscape:connector-curvature="0" />
            </g>
            <path
               id="path4508"
               d="m 335.671,214.083 h -72.069 c -14.814,0 -28.803,-6.483 -38.379,-17.787 -9.575,-11.303 -13.67,-26.167 -11.234,-40.779 l 2.584,-15.502 0.229,-1.378 h -13.628 c -8.197,0 -15.191,5.925 -16.539,14.009 l -11.176,67.063 c -1.704,10.219 6.177,19.522 16.536,19.522 h 128.076 c 10.36,0 18.24,-9.303 16.536,-19.522 z"
               style="fill:#ffd064"
               inkscape:connector-curvature="0" />
            <g
               id="g4516">
              <g
                 id="g4512">
                <path
                   id="path4510"
                   d="M 236.242,339.826 H 108.168 c -10.36,0 -18.241,-9.303 -16.538,-19.522 l 11.177,-67.063 c 1.347,-8.084 8.342,-14.009 16.538,-14.009 h 105.72 c 8.196,0 15.19,5.925 16.538,14.009 l 11.177,67.063 c 1.703,10.219 -6.178,19.522 -16.538,19.522 z"
                   style="fill:#ffe07d"
                   inkscape:connector-curvature="0" />
              </g>
              <path
                 id="path4514"
                 d="m 251.842,314.678 h -72.069 c -14.814,0 -28.803,-6.483 -38.379,-17.787 -9.575,-11.303 -13.67,-26.167 -11.234,-40.779 l 2.584,-15.502 0.229,-1.378 h -13.628 c -8.197,0 -15.191,5.925 -16.539,14.009 L 91.63,320.304 c -1.704,10.219 6.177,19.522 16.536,19.522 h 128.076 c 10.36,0 18.24,-9.303 16.536,-19.522 z"
                 style="fill:#ffd064"
                 inkscape:connector-curvature="0" />
            </g>
            <g
               id="g4524">
              <g
                 id="g4520">
                <path
                   id="path4518"
                   d="M 403.899,339.826 H 275.825 c -10.36,0 -18.241,-9.303 -16.538,-19.522 l 11.177,-67.063 c 1.347,-8.084 8.342,-14.009 16.538,-14.009 h 105.72 c 8.196,0 15.19,5.925 16.538,14.009 l 11.177,67.063 c 1.703,10.219 -6.178,19.522 -16.538,19.522 z"
                   style="fill:#ffe07d"
                   inkscape:connector-curvature="0" />
              </g>
              <path
                 id="path4522"
                 d="M 419.499,314.678 H 347.43 c -14.814,0 -28.803,-6.483 -38.379,-17.787 -9.575,-11.303 -13.67,-26.167 -11.234,-40.779 l 2.584,-15.502 0.229,-1.378 h -13.628 c -8.197,0 -15.191,5.925 -16.539,14.009 l -11.176,67.063 c -1.704,10.219 6.177,19.522 16.536,19.522 H 403.9 c 10.36,0 18.24,-9.303 16.536,-19.522 z"
                 style="fill:#ffd064"
                 inkscape:connector-curvature="0" />
            </g>
            <g
               id="g4532">
              <g
                 id="g4528">
                <path
                   id="path4526"
                   d="M 320.071,440.42 H 191.996 c -10.36,0 -18.241,-9.303 -16.538,-19.522 l 11.177,-67.063 c 1.347,-8.084 8.342,-14.009 16.538,-14.009 h 105.72 c 8.196,0 15.19,5.925 16.538,14.009 l 11.177,67.063 c 1.704,10.22 -6.177,19.522 -16.537,19.522 z"
                   style="fill:#ffe07d"
                   inkscape:connector-curvature="0" />
              </g>
              <path
                 id="path4530"
                 d="m 335.671,415.272 h -72.069 c -14.814,0 -28.803,-6.483 -38.379,-17.787 -9.575,-11.303 -13.67,-26.167 -11.234,-40.779 l 2.584,-15.502 0.229,-1.378 h -13.628 c -8.197,0 -15.191,5.925 -16.539,14.009 l -11.176,67.063 c -1.704,10.219 6.177,19.522 16.536,19.522 h 128.076 c 10.36,0 18.24,-9.303 16.536,-19.522 z"
                 style="fill:#ffd064"
                 inkscape:connector-curvature="0" />
            </g>
            <g
               id="g4540">
              <g
                 id="g4536">
                <path
                   id="path4534"
                   d="M 487.618,440.42 H 359.543 c -10.36,0 -18.241,-9.303 -16.538,-19.522 l 11.177,-67.063 c 1.347,-8.084 8.342,-14.009 16.538,-14.009 h 105.72 c 8.196,0 15.19,5.925 16.538,14.009 l 11.177,67.063 c 1.703,10.22 -6.177,19.522 -16.537,19.522 z"
                   style="fill:#ffe07d"
                   inkscape:connector-curvature="0" />
              </g>
              <path
                 id="path4538"
                 d="m 503.217,415.272 h -72.069 c -14.814,0 -28.803,-6.483 -38.379,-17.787 -9.575,-11.303 -13.67,-26.167 -11.234,-40.779 l 2.584,-15.502 0.229,-1.378 H 370.72 c -8.197,0 -15.191,5.925 -16.539,14.009 l -11.176,67.063 c -1.704,10.219 6.177,19.522 16.536,19.522 h 128.076 c 10.36,0 18.24,-9.303 16.536,-19.522 z"
                 style="fill:#ffd064"
                 inkscape:connector-curvature="0" />
            </g>
            <g
               id="g4548">
              <g
                 id="g4544">
                <path
                   id="path4542"
                   d="M 152.342,440.42 H 24.267 c -10.36,0 -18.241,-9.303 -16.538,-19.522 l 11.177,-67.063 c 1.347,-8.084 8.342,-14.009 16.538,-14.009 h 105.72 c 8.196,0 15.19,5.925 16.538,14.009 l 11.177,67.063 c 1.704,10.22 -6.177,19.522 -16.537,19.522 z"
                   style="fill:#ffe07d"
                   inkscape:connector-curvature="0" />
              </g>
              <path
                 id="path4546"
                 d="M 167.942,415.272 H 95.873 c -14.814,0 -28.803,-6.483 -38.379,-17.787 -9.575,-11.303 -13.67,-26.167 -11.234,-40.779 l 2.584,-15.502 0.229,-1.378 H 35.445 c -8.197,0 -15.191,5.925 -16.539,14.009 L 7.73,420.898 c -1.704,10.219 6.177,19.522 16.536,19.522 h 128.076 c 10.36,0 18.24,-9.303 16.536,-19.522 z"
                 style="fill:#ffd064"
                 inkscape:connector-curvature="0" />
            </g>
          </g>
          <g
             id="g4580"
             transform="matrix(0,0.3997446,-0.3997446,0,398.82351,-87.78981)">
            <path
               id="path4552"
               d="m 511.663,419.689 -11.179,-67.072 c -1.958,-11.75 -12.026,-20.278 -23.938,-20.278 H 426.31 c 1.715,-4.145 2.269,-8.725 1.513,-13.258 l -11.179,-67.073 c -1.958,-11.75 -12.026,-20.278 -23.938,-20.278 h -50.237 c 1.715,-4.145 2.269,-8.725 1.513,-13.258 l -11.179,-67.073 c -1.958,-11.75 -12.026,-20.278 -23.938,-20.278 H 203.13 c -11.912,0 -21.979,8.528 -23.938,20.278 l -11.179,67.072 c -0.756,4.533 -0.202,9.114 1.513,13.258 h -50.237 c -11.912,0 -21.979,8.528 -23.938,20.279 l -0.459,2.754 c -0.681,4.085 2.08,7.95 6.165,8.63 4.088,0.68 7.95,-2.079 8.631,-6.165 l 0.459,-2.754 c 0.748,-4.487 4.593,-7.745 9.142,-7.745 h 105.736 c 4.549,0 8.394,3.257 9.142,7.745 l 11.179,67.072 c 0.449,2.692 -0.306,5.432 -2.071,7.515 -1.79,2.113 -4.302,3.277 -7.071,3.277 H 108.11 c -2.77,0 -5.281,-1.164 -7.072,-3.277 -1.764,-2.083 -2.519,-4.822 -2.07,-7.515 l 5.13,-30.782 c 0.681,-4.085 -2.079,-7.95 -6.165,-8.631 -4.086,-0.681 -7.95,2.079 -8.631,6.165 l -5.13,30.782 c -0.755,4.533 -0.201,9.113 1.513,13.258 H 35.449 c -11.912,0 -21.979,8.528 -23.938,20.278 L 0.332,419.689 c -1.175,7.051 0.801,14.222 5.421,19.676 4.62,5.454 11.369,8.582 18.517,8.582 h 128.093 c 7.148,0 13.897,-3.128 18.517,-8.582 0.454,-0.536 0.875,-1.093 1.277,-1.66 0.402,0.567 0.823,1.124 1.277,1.66 4.62,5.454 11.369,8.582 18.517,8.582 h 128.093 c 7.148,0 13.897,-3.128 18.517,-8.582 0.454,-0.536 0.875,-1.093 1.277,-1.66 0.402,0.567 0.823,1.124 1.277,1.66 4.62,5.454 11.369,8.582 18.517,8.582 h 128.093 c 7.148,0 13.897,-3.128 18.517,-8.582 4.62,-5.454 6.596,-12.625 5.421,-19.676 z m -109.815,-165.215 11.179,67.072 c 0.449,2.692 -0.306,5.432 -2.07,7.515 -1.791,2.113 -4.302,3.277 -7.072,3.277 H 275.792 c -2.77,0 -5.281,-1.164 -7.071,-3.277 -1.765,-2.083 -2.52,-4.822 -2.071,-7.515 l 11.179,-67.073 c 0.748,-4.487 4.592,-7.744 9.142,-7.744 h 105.736 c 4.548,10e-4 8.393,3.258 9.141,7.745 z M 191.951,231.73 c -2.73,0 -5.308,-1.195 -7.072,-3.278 -1.791,-2.113 -2.526,-4.782 -2.07,-7.514 l 11.179,-67.072 c 0.748,-4.488 4.593,-7.745 9.142,-7.745 h 105.735 c 4.549,0 8.394,3.257 9.142,7.744 l 11.179,67.073 c 0.456,2.732 -0.28,5.4 -2.07,7.514 -1.764,2.083 -4.342,3.278 -7.072,3.278 z m 72.606,15 c -0.686,1.669 -1.216,3.428 -1.524,5.278 l -7.035,42.209 -7.035,-42.209 c -0.308,-1.851 -0.838,-3.609 -1.524,-5.279 h 17.118 z M 159.435,429.669 c -1.764,2.083 -4.342,3.277 -7.072,3.277 H 24.27 c -2.73,0 -5.308,-1.194 -7.072,-3.277 -1.791,-2.113 -2.526,-4.782 -2.07,-7.515 l 11.179,-67.072 c 0.748,-4.487 4.593,-7.744 9.142,-7.744 h 105.735 c 4.549,0 8.394,3.257 9.142,7.744 l 11.179,67.073 c 0.456,2.732 -0.28,5.401 -2.07,7.514 z m 12.722,-34.843 -7.035,-42.209 c -0.308,-1.851 -0.839,-3.609 -1.525,-5.278 h 17.119 c -0.686,1.669 -1.217,3.428 -1.525,5.278 z m 167.681,10e-4 -0.986,-5.913 c -0.681,-4.086 -4.552,-6.848 -8.631,-6.165 -4.086,0.681 -6.846,4.545 -6.165,8.631 l 5.129,30.776 c 0.456,2.732 -0.28,5.401 -2.07,7.514 -1.764,2.083 -4.342,3.277 -7.072,3.277 H 191.951 c -2.73,0 -5.308,-1.194 -7.072,-3.277 -1.791,-2.113 -2.526,-4.782 -2.07,-7.515 l 11.179,-67.072 c 0.748,-4.487 4.593,-7.744 9.142,-7.744 h 105.735 c 4.549,0 8.394,3.257 9.142,7.744 l 0.46,2.761 c 0.681,4.086 4.542,6.847 8.63,6.165 4.086,-0.681 6.846,-4.544 6.166,-8.63 l -0.46,-2.762 c -0.308,-1.851 -0.839,-3.609 -1.525,-5.278 h 17.119 c -0.686,1.669 -1.216,3.428 -1.525,5.278 z m 154.959,34.842 c -1.764,2.083 -4.342,3.277 -7.072,3.277 H 359.632 c -2.73,0 -5.308,-1.194 -7.072,-3.277 -1.791,-2.113 -2.526,-4.782 -2.07,-7.515 l 11.179,-67.072 c 0.748,-4.487 4.593,-7.744 9.142,-7.744 h 105.735 c 4.549,0 8.394,3.257 9.142,7.744 l 11.179,67.073 c 0.456,2.732 -0.28,5.401 -2.07,7.514 z"
               inkscape:connector-curvature="0" />
            <path
               id="path4554"
               d="m 38.012,297.034 h 25.152 c 4.142,0 7.5,-3.358 7.5,-7.5 0,-4.142 -3.358,-7.5 -7.5,-7.5 H 38.012 c -4.142,0 -7.5,3.358 -7.5,7.5 0,4.142 3.358,7.5 7.5,7.5 z"
               inkscape:connector-curvature="0" />
            <path
               id="path4556"
               d="m 441.331,289.534 c 0,4.142 3.358,7.5 7.5,7.5 h 25.152 c 4.142,0 7.5,-3.358 7.5,-7.5 0,-4.142 -3.358,-7.5 -7.5,-7.5 h -25.152 c -4.142,0 -7.5,3.358 -7.5,7.5 z"
               inkscape:connector-curvature="0" />
            <path
               id="path4558"
               d="m 255.998,104.201 c 4.142,0 7.5,-3.358 7.5,-7.5 V 71.548 c 0,-4.143 -3.358,-7.5 -7.5,-7.5 -4.142,0 -7.5,3.357 -7.5,7.5 V 96.7 c 0,4.142 3.358,7.501 7.5,7.501 z"
               inkscape:connector-curvature="0" />
            <path
               id="path4560"
               d="m 114.34,158.483 c 1.464,1.465 3.384,2.197 5.303,2.197 1.919,0 3.839,-0.732 5.303,-2.197 2.929,-2.929 2.929,-7.677 0,-10.606 l -17.785,-17.785 c -2.929,-2.929 -7.678,-2.929 -10.606,0 -2.929,2.929 -2.929,7.678 0,10.606 z"
               inkscape:connector-curvature="0" />
            <path
               id="path4562"
               d="m 392.352,160.68 c 1.919,0 3.839,-0.732 5.303,-2.197 l 17.785,-17.785 c 2.929,-2.929 2.929,-7.677 0,-10.606 -2.929,-2.929 -7.678,-2.929 -10.606,0 l -17.785,17.785 c -2.929,2.929 -2.929,7.678 0,10.606 1.464,1.465 3.383,2.197 5.303,2.197 z"
               inkscape:connector-curvature="0" />
            <path
               id="path4564"
               d="m 153.086,126.286 c 1.389,2.406 3.91,3.751 6.502,3.751 1.272,0 2.563,-0.324 3.744,-1.006 3.587,-2.071 4.816,-6.658 2.745,-10.246 l -4.192,-7.261 c -2.071,-3.587 -6.658,-4.815 -10.246,-2.745 -3.587,2.071 -4.816,6.658 -2.745,10.246 z"
               inkscape:connector-curvature="0" />
            <path
               id="path4566"
               d="m 416.501,196.867 c 1.389,2.406 3.91,3.751 6.502,3.751 1.272,0 2.563,-0.324 3.743,-1.006 l 7.261,-4.192 c 3.587,-2.071 4.816,-6.658 2.745,-10.245 -2.071,-3.588 -6.659,-4.816 -10.245,-2.745 l -7.261,4.192 c -3.587,2.071 -4.816,6.658 -2.745,10.245 z"
               inkscape:connector-curvature="0" />
            <path
               id="path4568"
               d="m 303.966,110.515 c 0.65,0.175 1.303,0.258 1.946,0.258 3.311,0 6.342,-2.21 7.24,-5.561 l 2.17,-8.099 c 1.072,-4.001 -1.303,-8.113 -5.304,-9.186 -3.996,-1.072 -8.113,1.302 -9.186,5.303 l -2.17,8.098 c -1.072,4.003 1.303,8.115 5.304,9.187 z"
               inkscape:connector-curvature="0" />
            <path
               id="path4570"
               d="m 59.695,244.699 8.099,2.17 c 0.65,0.174 1.303,0.257 1.946,0.257 3.311,0 6.342,-2.21 7.24,-5.561 1.072,-4.001 -1.303,-8.113 -5.304,-9.186 l -8.099,-2.17 c -3.997,-1.071 -8.113,1.302 -9.186,5.303 -1.071,4.003 1.303,8.116 5.304,9.187 z"
               inkscape:connector-curvature="0" />
            <path
               id="path4572"
               d="m 348.664,129.03 c 1.182,0.682 2.471,1.006 3.744,1.006 2.592,0 5.113,-1.345 6.502,-3.751 l 4.192,-7.261 c 2.071,-3.587 0.842,-8.174 -2.745,-10.246 -3.588,-2.071 -8.175,-0.842 -10.246,2.745 l -4.192,7.261 c -2.071,3.588 -0.842,8.175 2.745,10.246 z"
               inkscape:connector-curvature="0" />
            <path
               id="path4574"
               d="m 77.988,195.42 7.261,4.192 c 1.181,0.682 2.471,1.006 3.743,1.006 2.592,0 5.113,-1.346 6.502,-3.751 2.071,-3.587 0.842,-8.174 -2.745,-10.245 l -7.261,-4.192 c -3.587,-2.071 -8.174,-0.843 -10.245,2.745 -2.071,3.587 -0.842,8.174 2.745,10.245 z"
               inkscape:connector-curvature="0" />
            <path
               id="path4576"
               d="m 198.844,105.212 c 0.898,3.351 3.928,5.561 7.24,5.561 0.643,0 1.296,-0.083 1.946,-0.258 4.001,-1.072 6.375,-5.185 5.304,-9.186 l -2.17,-8.098 c -1.072,-4.001 -5.185,-6.375 -9.186,-5.303 -4.001,1.072 -6.375,5.185 -5.304,9.186 z"
               inkscape:connector-curvature="0" />
            <path
               id="path4578"
               d="m 435.016,241.566 c 0.898,3.351 3.928,5.561 7.24,5.561 0.643,0 1.296,-0.083 1.946,-0.257 l 8.099,-2.17 c 4.001,-1.072 6.375,-5.184 5.304,-9.186 -1.072,-4.001 -5.186,-6.376 -9.186,-5.303 l -8.099,2.17 c -4.002,1.072 -6.376,5.184 -5.304,9.185 z"
               inkscape:connector-curvature="0" />
          </g>
        </g>
        <g
           transform="rotate(-90,194.77876,407.18398)"
           id="g4654">
          <g
             id="g4646">
            <g
               id="flowRoot4631"
               style="font-style:normal;font-weight:normal;font-size:40px;line-height:1.25;font-family:sans-serif;letter-spacing:0px;word-spacing:0px;writing-mode:vertical-lr;fill:#000000;fill-opacity:1;stroke:none"
               transform="matrix(0.81737715,0,0,0.81737715,25.731749,63.50948)"
               aria-label="Golden Switzerland - An Interactive Datavizualisation project">
              <path
                 id="path4745"
                 style="font-style:normal;font-variant:normal;font-weight:normal;font-stretch:normal;font-size:65.24871826px;font-family:'Cooper Black';-inkscape-font-specification:'Cooper Black, '"
                 d="m 361.37478,488.29405 q 0,4.17362 -1.17881,7.86935 -0.54162,1.65671 -0.54162,2.26204 0,0.6372 0.73278,2.67622 0.22301,0.66905 0.22301,1.36997 0,1.78414 -2.10274,3.40899 -3.37713,2.6125 -7.39145,2.6125 -2.73994,0 -4.42851,-1.40183 -1.68856,-1.36997 -1.68856,-3.63201 0,-1.84787 1.33811,-3.63201 0.41417,-0.54162 2.99481,-2.64436 4.30106,-3.50457 4.30106,-8.06051 0,-4.14176 -3.02667,-6.59496 -3.02667,-2.42134 -8.15609,-2.42134 -7.61447,0 -12.96691,3.88689 -1.94344,1.46554 -3.12225,3.50457 -1.14695,2.03902 -1.14695,4.04618 0,1.65671 1.08323,2.70808 1.11509,1.08323 2.83551,1.08323 1.52927,0 2.16647,-0.89207 0.25487,-0.35046 0.28673,-0.66906 0.0637,-0.28674 0.0637,-1.816 0,-1.36997 0.86022,-2.2939 0.89207,-0.89207 2.23018,-0.89207 2.64435,0 3.75944,3.50457 1.21067,3.85502 1.21067,8.88886 0,5.38429 -1.11509,9.04816 -1.08323,3.47271 -3.91874,3.47271 -1.14695,0 -2.00717,-0.79649 -0.82835,-0.7965 -0.98765,-2.07088 -0.1593,-1.11509 -0.50975,-1.46555 -0.3186,-0.3186 -1.62485,-0.66906 -5.0657,-1.36996 -8.47469,-5.35243 -2.32576,-2.73994 -3.63201,-6.62682 -1.30624,-3.85503 -1.30624,-8.12423 0,-6.97728 3.21783,-12.80761 3.28155,-5.98963 9.1756,-9.11188 4.9064,-2.6125 10.60929,-2.6125 5.76661,0 10.95974,3.12225 5.57546,3.31341 8.60213,9.27118 2.67622,5.19314 2.67622,11.85182 z"
                 inkscape:connector-curvature="0" />
              <path
                 id="path4747"
                 style="font-style:normal;font-variant:normal;font-weight:normal;font-stretch:normal;font-size:65.24871826px;font-family:'Cooper Black';-inkscape-font-specification:'Cooper Black, '"
                 d="m 348.75833,535.25528 q 0,5.83033 -3.02668,10.22698 -2.16646,3.15411 -5.63917,5.06569 -3.63201,1.97531 -7.58261,1.97531 -6.91357,0 -11.75624,-6.34009 -4.61966,-6.05335 -4.61966,-13.85898 0,-7.61448 4.33292,-12.32971 4.20548,-4.5878 10.95974,-4.5878 7.5189,0 12.29786,5.60731 5.03384,5.86219 5.03384,14.24129 z m -7.3596,-2.54877 q 0,-1.40183 -1.05137,-2.26204 -1.01951,-0.82836 -2.73994,-0.82836 -1.91158,0 -5.22499,0.70092 -3.28156,0.73277 -5.83033,1.72042 -2.6125,0.98765 -2.6125,3.21783 0,2.83552 3.60015,2.83552 2.67621,0 6.08521,-0.73277 3.40899,-0.70092 5.54359,-1.72043 2.16646,-1.05137 2.23018,-2.93109 z"
                 inkscape:connector-curvature="0" />
              <path
                 id="path4749"
                 style="font-style:normal;font-variant:normal;font-weight:normal;font-stretch:normal;font-size:65.24871826px;font-family:'Cooper Black';-inkscape-font-specification:'Cooper Black, '"
                 d="m 342.25894,573.00906 h -10.22697 q -6.78612,0 -7.90121,0.19116 -1.11509,0.22302 -1.72043,1.59299 -0.50975,1.17881 -0.95579,1.56113 -0.44604,0.41417 -1.27439,0.41417 -1.05137,0 -1.91158,-0.76463 -0.86021,-0.73278 -1.21067,-1.9753 -0.70092,-2.2939 -0.70092,-7.74192 0,-6.14893 0.92394,-8.63398 0.41417,-1.14695 1.27439,-1.87973 0.89207,-0.73277 1.84786,-0.73277 0.76463,0 1.17881,0.38232 0.41418,0.41417 0.98765,1.75228 0.54162,1.24253 2.96296,1.52927 4.14176,0.50975 11.78809,0.50975 7.77378,0 10.00396,-0.44603 2.23018,-0.44604 3.31341,-2.23018 0.76463,-1.33811 1.43369,-1.84787 0.70091,-0.47789 1.68856,-0.47789 1.56113,0 2.70808,1.4974 1.17881,1.49741 2.16646,4.77896 0.66905,2.19832 1.27439,5.70289 0.60533,3.50457 0.60533,5.09756 0,2.51692 -3.12225,2.51692 -1.01951,0 -4.68338,-0.3186 -5.70289,-0.41418 -10.44999,-0.4779 z"
                 inkscape:connector-curvature="0" />
              <path
                 id="path4751"
                 style="font-style:normal;font-variant:normal;font-weight:normal;font-stretch:normal;font-size:65.24871826px;font-family:'Cooper Black';-inkscape-font-specification:'Cooper Black, '"
                 d="M 357.93393,615.89225 H 328.846 q -2.48506,0 -3.18598,0.19116 -0.70091,0.22302 -1.36996,1.17881 -0.7965,1.14695 -1.40183,1.52927 -0.60534,0.41417 -1.46555,0.41417 -2.54878,0 -3.88689,-5.12941 -1.17881,-4.61966 -1.17881,-9.23932 0,-1.01952 0.3186,-1.33811 0.28674,-0.28674 1.43369,-0.38232 1.62485,-0.1593 1.62485,-1.14695 0,-0.54162 -0.9558,-1.68857 -2.64435,-3.24969 -2.64435,-7.23215 0,-4.93826 3.66386,-8.88887 2.19833,-2.32576 5.0657,-3.75944 3.72759,-1.91159 7.55076,-1.91159 4.49222,0 8.66584,2.48506 3.85503,2.2939 5.92591,6.24451 1.72043,3.31341 1.72043,6.53124 0,3.69573 -1.65671,6.62682 -0.25488,0.4779 -0.25488,0.76464 0,1.01951 2.73994,1.01951 1.17881,0 1.78414,-0.57348 0.6372,-0.54161 1.08323,-1.9753 0.6372,-2.00716 2.23018,-2.00716 2.32576,0 3.63201,4.61966 2.26204,8.15609 2.26204,10.92788 0,2.73994 -2.61249,2.73994 z m -16.02545,-17.29983 q 0,-2.07088 -2.19832,-3.28155 -2.93109,-1.62485 -7.71005,-1.62485 -4.33292,0 -6.53124,1.56113 -1.59299,1.11509 -1.59299,3.02667 0,2.07088 2.38948,2.99482 2.42134,0.95579 7.77377,0.95579 4.9064,0 6.53125,-1.11509 1.27438,-0.86022 1.3381,-2.51692 z"
                 inkscape:connector-curvature="0" />
              <path
                 id="path4753"
                 style="font-style:normal;font-variant:normal;font-weight:normal;font-stretch:normal;font-size:65.24871826px;font-family:'Cooper Black';-inkscape-font-specification:'Cooper Black, '"
                 d="M 331.26734,650.52377 V 635.5497 q 0,-0.98766 -0.86022,-0.98766 -2.07088,0 -3.91874,2.23018 -1.81601,2.26204 -1.81601,4.84268 0,1.52927 0.57348,3.37713 0.60533,1.87973 1.46555,3.0904 0.76463,1.08323 0.76463,1.72042 0,0.82836 -1.01951,1.62485 -1.01951,0.79649 -2.10274,0.79649 -2.2939,0 -4.42851,-2.86737 -3.7913,-5.0657 -3.7913,-11.69252 0,-6.69055 3.88688,-11.21463 1.91159,-2.19832 4.61966,-3.63201 3.60015,-1.87972 7.58262,-1.87972 5.35243,0 9.62163,3.24969 3.69573,2.80366 5.51174,7.13658 1.36997,3.24969 1.36997,7.041 0,6.05335 -3.44085,10.29069 -1.72043,2.1346 -4.07805,3.44085 -2.67622,1.49741 -5.22499,1.49741 -2.07089,0 -3.409,-0.86021 -1.30624,-0.86022 -1.30624,-2.23018 z m 5.95776,-14.14572 v 3.21783 q 0,2.03902 1.87973,2.03902 1.72042,0 2.80365,-0.98765 1.08323,-0.98765 1.08323,-2.58064 0,-1.78414 -1.40182,-2.80365 -1.30625,-0.95579 -2.64436,-0.95579 -0.95579,0 -1.33811,0.44603 -0.38232,0.4779 -0.38232,1.62485 z"
                 inkscape:connector-curvature="0" />
              <path
                 id="path4755"
                 style="font-style:normal;font-variant:normal;font-weight:normal;font-stretch:normal;font-size:65.24871826px;font-family:'Cooper Black';-inkscape-font-specification:'Cooper Black, '"
                 d="m 336.97023,694.3309 -11.21463,0.44603 q -1.27439,0.0637 -1.87972,0.38232 -0.60534,0.35046 -2.32576,1.9753 -0.50976,0.4779 -1.43369,0.4779 -2.10274,0 -2.93109,-2.51692 -0.82836,-2.51692 -0.82836,-8.98444 0,-4.39664 0.76464,-6.21265 0.79649,-1.87972 2.58064,-1.87972 0.63719,0 0.92393,0.19116 0.31859,0.19115 1.4974,1.27439 1.33811,1.27438 8.92073,1.27438 4.39664,0 6.49938,-1.01951 1.68857,-0.82835 1.68857,-3.05853 0,-2.1346 -1.36997,-2.9311 -1.36997,-0.79649 -4.97012,-0.79649 h -6.30822 q -1.87973,0 -2.58064,0.22302 -0.70092,0.25488 -2.70808,1.59299 -0.57347,0.35045 -1.30625,0.35045 -1.87972,0 -2.77179,-2.61249 -0.89208,-2.6125 -0.89208,-8.15609 0,-8.85701 3.66387,-8.85701 0.76464,0 1.14695,0.25488 0.41418,0.28674 1.14695,1.30625 0.60534,0.82835 1.36997,1.05137 0.79649,0.22302 3.85503,0.41418 3.63201,0.22301 7.61447,0.22301 2.19832,0 2.86738,-0.35045 0.70091,-0.3186 1.68856,-1.91159 0.86022,-1.36996 2.10275,-1.36996 1.27438,0 2.07088,1.11509 0.82835,1.11509 2.07088,4.5878 1.08323,3.05853 1.816,5.89405 0.76464,2.83551 0.76464,3.88688 0,0.95579 -0.70092,1.59299 -0.70091,0.66905 -1.6567,0.66905 -0.0956,0 -0.7965,-0.0319 -0.25487,-0.0319 -0.44603,-0.0319 -1.52927,0 -1.52927,1.27439 0,0.76464 1.21067,1.62485 3.95061,2.73993 3.95061,7.96493 0,4.01432 -2.10274,6.8817 -1.49741,2.00716 -3.53643,2.80366 -2.00717,0.79649 -5.92591,0.98765 z"
                 inkscape:connector-curvature="0" />
              <path
                 id="path4757"
                 style="font-style:normal;font-variant:normal;font-weight:normal;font-stretch:normal;font-size:65.24871826px;font-family:'Cooper Black';-inkscape-font-specification:'Cooper Black, '"
                 d="m 361.37478,735.07949 q 0,3.28155 -1.62485,8.60213 -0.19116,0.63719 -0.19116,1.01951 0,0.3186 0.57348,1.91158 0.19116,0.50976 0.19116,1.08323 0,2.1346 -3.37714,4.49222 -3.37713,2.38948 -6.43566,2.38948 -1.78414,0 -3.02667,-1.08323 -1.21067,-1.05137 -1.21067,-2.58063 0,-1.27439 0.50975,-2.07089 0.50976,-0.79649 3.02668,-3.50457 3.56829,-3.82316 3.56829,-7.51889 0,-1.78415 -0.86022,-2.86738 -0.86021,-1.05137 -2.26204,-1.05137 -2.77179,0 -4.17362,4.87454 -1.94344,6.59496 -2.83552,8.44283 -3.9506,8.12423 -11.6288,8.12423 -6.78612,0 -11.08718,-5.54359 -4.39664,-5.67104 -4.39664,-14.81478 0,-4.07804 0.95579,-8.60212 0.98765,-4.52408 2.2939,-6.53125 1.01951,-1.52926 4.4285,-2.77179 3.44085,-1.21067 6.69054,-1.21067 1.56113,0 2.35762,0.63719 1.01951,0.7965 1.01951,2.00716 0,1.21067 -1.24253,2.32576 -0.70091,0.66906 -4.49222,3.15412 -1.78414,1.17881 -2.96295,3.72759 -1.17881,2.58063 -1.17881,5.32057 0,2.35762 0.86021,3.82317 0.89207,1.46554 2.26204,1.46554 1.27439,0 2.19832,-1.14695 0.92393,-1.14695 1.72043,-3.72758 1.43369,-4.55594 2.6125,-6.94542 1.21066,-2.38948 3.02667,-4.46037 4.46036,-5.03383 10.13139,-5.03383 2.80366,0 5.44802,1.30625 2.67621,1.30625 4.61966,3.69572 4.49222,5.35244 4.49222,13.06249 z"
                 inkscape:connector-curvature="0" />
              <path
                 id="path4759"
                 style="font-style:normal;font-variant:normal;font-weight:normal;font-stretch:normal;font-size:65.24871826px;font-family:'Cooper Black';-inkscape-font-specification:'Cooper Black, '"
                 d="m 322.50591,794.49788 5.25686,-3.28155 q 1.78414,-1.14695 2.1346,-1.49741 0.35045,-0.31859 0.35045,-0.86021 0,-1.14695 -2.10274,-2.35762 l -9.1756,-5.32057 q -2.64436,-1.52927 -2.64436,-3.44085 0,-1.17881 0.7965,-2.16646 0.82835,-0.98766 2.77179,-2.13461 l 15.89801,-9.55791 q 3.85502,-2.38948 5.03383,-3.72759 0.50976,-0.6372 0.98766,-2.32576 0.22301,-0.70092 0.86021,-1.17881 0.66905,-0.44604 1.46555,-0.44604 2.45319,0 3.44085,3.79131 0.95579,3.82317 0.95579,8.34725 0,10.16325 -3.79131,10.16325 -0.70091,0 -2.1346,-0.98765 -0.28674,-0.19116 -0.60534,-0.19116 -0.70091,0 -3.47271,1.49741 -3.15411,1.6567 -3.15411,2.86737 0,0.70092 1.59299,1.78415 1.59298,1.08323 2.58063,1.08323 0.98766,0 1.56113,-0.4779 0.60534,-0.47789 1.87972,-2.26204 0.76464,-1.08323 1.81601,-1.08323 2.48506,0 3.24969,5.09756 0.4779,3.09039 0.4779,7.26402 0,4.81081 -0.82836,6.94542 -0.79649,2.1346 -2.61249,2.1346 -0.73278,0 -1.17881,-0.25488 -0.44604,-0.25488 -1.59299,-1.36997 -0.38232,-0.35046 -0.98765,-0.35046 -0.86021,0 -3.63201,1.46555 -2.42134,1.27439 -2.42134,2.32576 0,1.14695 3.09039,2.89924 2.32576,1.27439 3.0904,1.27439 0.60533,0 1.87972,-1.01952 0.89207,-0.73277 1.94345,-0.73277 1.6567,0 2.2939,1.49741 0.92393,2.10274 0.92393,6.11707 0,2.70807 -0.41418,4.81081 -0.25488,1.21067 -1.05137,1.97531 -0.76463,0.76463 -1.78414,0.76463 -1.01952,0 -1.72043,-0.89207 -0.1593,-0.1593 -0.89207,-2.23018 -0.44604,-1.17881 -1.27439,-1.94345 -0.82835,-0.76463 -2.96296,-1.84786 l -15.4201,-7.96493 q -6.75426,-3.50457 -6.75426,-6.18079 0,-1.14695 1.43368,-2.54878 1.46555,-1.36996 4.84268,-3.47271 z"
                 inkscape:connector-curvature="0" />
              <path
                 id="path4761"
                 style="font-style:normal;font-variant:normal;font-weight:normal;font-stretch:normal;font-size:65.24871826px;font-family:'Cooper Black';-inkscape-font-specification:'Cooper Black, '"
                 d="m 346.52814,840.08914 h -18.5105 q -2.19832,0 -3.21783,0.38231 -1.01951,0.41418 -1.87972,1.62485 -0.70092,0.98765 -1.21067,1.30625 -0.4779,0.35045 -1.24253,0.35045 -4.10991,0 -4.10991,-10.41813 0,-5.60731 0.89208,-8.88886 0.31859,-1.11509 1.11509,-1.816 0.79649,-0.66906 1.816,-0.66906 0.86021,0 1.33811,0.35046 0.4779,0.35046 1.52927,1.78414 0.73277,0.98766 2.38948,1.40183 1.6567,0.41418 4.93825,0.41418 1.05137,0 3.91875,-0.1593 2.89923,-0.12744 3.37713,-0.19116 1.30625,-0.19116 2.00716,-1.78414 0.86022,-1.97531 2.54878,-1.97531 2.00716,0 2.99482,2.58064 1.36996,3.56829 2.32576,7.64634 0.95579,4.07804 0.95579,6.30822 0,1.75229 -1.97531,1.75229 z m 13.95456,-6.30823 q 0,2.7718 -1.05137,4.39664 -1.01951,1.62485 -2.77179,1.62485 -2.4532,0 -3.88689,-2.4532 -2.26204,-3.88689 -2.26204,-9.39862 0,-2.32576 0.89207,-3.69573 1.14695,-1.84786 3.18598,-1.84786 2.73993,0 4.30106,3.91874 1.59298,3.98247 1.59298,7.45518 z"
                 inkscape:connector-curvature="0" />
              <path
                 id="path4763"
                 style="font-style:normal;font-variant:normal;font-weight:normal;font-stretch:normal;font-size:65.24871826px;font-family:'Cooper Black';-inkscape-font-specification:'Cooper Black, '"
                 d="m 340.37922,864.5574 h -10.76859 q -1.91158,0 -3.12225,0.92394 -1.21067,0.95579 -1.21067,2.42134 0,1.24253 1.14695,3.28155 0.28674,0.47789 0.28674,0.95579 0,0.76463 -0.92394,1.40183 -0.92393,0.63719 -2.00716,0.63719 -1.9753,0 -3.79131,-2.16646 -3.85502,-4.52408 -3.85502,-10.95975 0,-5.09755 2.86737,-8.18794 2.89924,-3.0904 7.61448,-3.0904 h 14.71919 q 0.73277,0 0.89207,-0.19116 0.19116,-0.15929 0.19116,-0.89207 v -3.28155 q 0,-0.92393 0.28674,-1.17881 0.31859,-0.25488 1.43369,-0.25488 h 1.40182 q 0.95579,0.0319 1.40183,0.73278 l 9.1756,14.59175 q 0.28674,0.54162 0.28674,1.33811 v 2.58064 q 0,0.79649 -0.38232,1.05137 -0.35045,0.28673 -1.43368,0.28673 h -4.30107 q -0.95579,0 -1.24253,0.28674 -0.28673,0.3186 -0.28673,1.30625 v 5.89405 q 0,1.17881 -0.44604,1.52927 -0.41418,0.35045 -1.81601,0.35045 h -1.87972 q -1.52927,0 -2.1346,-0.44603 -0.57348,-0.44604 -0.57348,-1.62485 v -5.76661 q 0,-0.89207 -0.31859,-1.21067 -0.3186,-0.3186 -1.21067,-0.3186 z"
                 inkscape:connector-curvature="0" />
              <path
                 id="path4765"
                 style="font-style:normal;font-variant:normal;font-weight:normal;font-stretch:normal;font-size:65.24871826px;font-family:'Cooper Black';-inkscape-font-specification:'Cooper Black, '"
                 d="m 347.92997,892.11608 v 8.44283 q 0,2.93109 -0.12744,3.72759 -0.0956,0.82835 -0.54161,1.24253 -0.54162,0.54161 -1.43369,0.54161 -1.17881,0 -3.02667,-1.05137 l -15.00593,-8.44283 q -1.87973,-1.05137 -2.64436,-1.05137 -1.49741,0 -1.49741,2.26204 0,1.62485 0.6372,2.58064 0.66905,0.98765 2.2939,1.84786 1.46554,0.73278 1.94344,1.21067 0.50976,0.4779 0.50976,1.14695 0,1.40183 -1.1151,2.2939 -1.11509,0.89208 -2.86737,0.89208 -1.9753,0 -4.23734,-1.08323 -2.23018,-1.08324 -3.72759,-2.73994 -1.11509,-1.24253 -1.11509,-2.35762 0,-0.4779 0.31859,-1.24253 0.66906,-1.56113 0.70092,-3.69573 v -16.69449 q 0,-4.23735 2.4532,-4.23735 0.54161,0 1.14695,0.3186 0.60533,0.3186 3.79131,2.23018 l 11.72437,7.29588 q 3.2497,2.03902 4.10991,2.03902 1.27439,0 1.27439,-2.67622 0,-1.36997 -0.54162,-2.19832 -0.50975,-0.79649 -1.94344,-1.72042 -1.72043,-1.05137 -2.23018,-1.62485 -0.4779,-0.54161 -0.4779,-1.46555 0,-1.24253 0.95579,-2.03902 0.98766,-0.79649 2.48506,-0.79649 2.86738,0 6.18079,1.94344 3.15411,1.84787 3.15411,3.53643 0,0.38232 -0.22302,1.01951 -0.60533,1.75229 -0.70091,2.7718 -0.0956,1.05137 -0.22302,7.77377 z"
                 inkscape:connector-curvature="0" />
              <path
                 id="path4767"
                 style="font-style:normal;font-variant:normal;font-weight:normal;font-stretch:normal;font-size:65.24871826px;font-family:'Cooper Black';-inkscape-font-specification:'Cooper Black, '"
                 d="m 331.26734,938.82243 v -14.97407 q 0,-0.98766 -0.86022,-0.98766 -2.07088,0 -3.91874,2.23018 -1.81601,2.26205 -1.81601,4.84268 0,1.52927 0.57348,3.37713 0.60533,1.87973 1.46555,3.0904 0.76463,1.08323 0.76463,1.72042 0,0.82836 -1.01951,1.62485 -1.01951,0.79649 -2.10274,0.79649 -2.2939,0 -4.42851,-2.86737 -3.7913,-5.0657 -3.7913,-11.69252 0,-6.69055 3.88688,-11.21463 1.91159,-2.19832 4.61966,-3.63201 3.60015,-1.87972 7.58262,-1.87972 5.35243,0 9.62163,3.24969 3.69573,2.80366 5.51174,7.13658 1.36997,3.24969 1.36997,7.041 0,6.05335 -3.44085,10.29069 -1.72043,2.1346 -4.07805,3.44085 -2.67622,1.49741 -5.22499,1.49741 -2.07089,0 -3.409,-0.86021 -1.30624,-0.86022 -1.30624,-2.23018 z m 5.95776,-14.14572 v 3.21783 q 0,2.03902 1.87973,2.03902 1.72042,0 2.80365,-0.98765 1.08323,-0.98765 1.08323,-2.58064 0,-1.78414 -1.40182,-2.80365 -1.30625,-0.95579 -2.64436,-0.95579 -0.95579,0 -1.33811,0.44603 -0.38232,0.4779 -0.38232,1.62485 z"
                 inkscape:connector-curvature="0" />
              <path
                 id="path4769"
                 style="font-style:normal;font-variant:normal;font-weight:normal;font-stretch:normal;font-size:65.24871826px;font-family:'Cooper Black';-inkscape-font-specification:'Cooper Black, '"
                 d="m 348.53531,958.8622 q 0,1.68857 -0.4779,2.03902 -0.47789,0.38232 -3.05853,0.66906 -1.40183,0.1593 -1.40183,0.98765 0,0.63719 0.92393,1.21067 3.98247,2.54878 3.98247,6.65868 0,2.89924 -1.87973,4.7471 -0.92393,0.89207 -2.38948,1.46555 -1.43368,0.57347 -2.77179,0.57347 -1.49741,0 -3.0904,-0.70091 -1.56112,-0.70091 -2.58063,-1.816 -1.94345,-2.03903 -1.94345,-5.00198 0,-1.62485 0.57348,-2.73994 0.57347,-1.08323 2.32576,-2.86737 0.66905,-0.66906 0.66905,-1.24253 0,-0.89207 -1.01951,-1.17881 -0.98765,-0.25488 -4.20548,-0.25488 -4.81082,0 -6.56311,0.35046 -0.95579,0.22302 -1.3381,0.60533 -0.35046,0.41418 -0.73278,1.72043 -0.86021,2.86737 -2.99481,2.86737 -1.30625,0 -2.2939,-0.92393 -0.95579,-0.92393 -1.27439,-2.4532 -0.6372,-3.05853 -0.6372,-8.98444 0,-5.63917 0.98766,-8.57027 0.89207,-2.61249 3.09039,-2.61249 1.6567,0 2.96295,1.91158 0.60534,0.92393 1.08323,1.27439 0.50976,0.35045 1.36997,0.47789 2.89924,0.50976 10.73673,0.50976 1.43369,0 2.03902,-0.3186 0.6372,-0.3186 1.01951,-1.27439 0.89208,-2.26204 2.58064,-2.26204 1.52927,0 2.6125,1.56113 1.11509,1.56113 2.19832,5.22499 1.46555,4.9064 1.49741,8.34725 z"
                 inkscape:connector-curvature="0" />
              <path
                 id="path4771"
                 style="font-style:normal;font-variant:normal;font-weight:normal;font-stretch:normal;font-size:65.24871826px;font-family:'Cooper Black';-inkscape-font-specification:'Cooper Black, '"
                 d="m 342.25894,996.10619 h -10.22697 q -6.78612,0 -7.90121,0.19115 -1.11509,0.22302 -1.72043,1.59299 -0.50975,1.17881 -0.95579,1.56113 -0.44604,0.41417 -1.27439,0.41417 -1.05137,0 -1.91158,-0.76463 -0.86021,-0.73277 -1.21067,-1.9753 -0.70092,-2.2939 -0.70092,-7.74192 0,-6.14892 0.92394,-8.63398 0.41417,-1.14695 1.27439,-1.87973 0.89207,-0.73277 1.84786,-0.73277 0.76463,0 1.17881,0.38232 0.41418,0.41417 0.98765,1.75228 0.54162,1.24253 2.96296,1.52927 4.14176,0.50976 11.78809,0.50976 7.77378,0 10.00396,-0.44604 2.23018,-0.44604 3.31341,-2.23018 0.76463,-1.33811 1.43369,-1.84787 0.70091,-0.47789 1.68856,-0.47789 1.56113,0 2.70808,1.49741 1.17881,1.4974 2.16646,4.77895 0.66905,2.19833 1.27439,5.70289 0.60533,3.50457 0.60533,5.09756 0,2.51692 -3.12225,2.51692 -1.01951,0 -4.68338,-0.3186 -5.70289,-0.41417 -10.44999,-0.47789 z"
                 inkscape:connector-curvature="0" />
              <path
                 id="path4773"
                 style="font-style:normal;font-variant:normal;font-weight:normal;font-stretch:normal;font-size:65.24871826px;font-family:'Cooper Black';-inkscape-font-specification:'Cooper Black, '"
                 d="m 348.75833,1020.8931 q 0,5.5436 -2.80366,9.3986 -1.49741,2.0391 -3.44085,2.8355 -1.91158,0.8284 -5.28872,0.8284 l -4.74709,-0.064 q -4.93826,0 -6.40381,0.7009 -0.70091,0.3505 -0.89207,0.669 -0.19116,0.3186 -0.35046,1.3382 -0.1593,1.0195 -1.33811,1.0195 -1.52926,0 -3.18597,-1.2426 -1.65671,-1.2106 -2.7718,-3.1541 -1.40182,-2.3895 -1.40182,-5.002 0,-3.3452 2.2939,-5.2887 0.82835,-0.669 0.82835,-1.2425 0,-0.6372 -0.79649,-1.6886 -2.32576,-3.1859 -2.32576,-7.2321 0,-4.1736 1.78414,-6.7543 1.17881,-1.6885 3.05853,-2.6762 1.91159,-0.9876 3.98247,-0.9876 3.31341,0 5.86219,2.6762 4.01433,4.1736 4.04618,12.489 0,1.8478 0.35046,2.3257 0.38232,0.4779 1.72043,0.4779 3.37713,0 4.87454,-0.7009 1.52926,-0.7009 1.52926,-2.2939 0,-0.9558 -0.57347,-1.7204 -0.57348,-0.7328 -2.10275,-1.8479 -4.04618,-2.8355 -4.04618,-5.9259 0,-1.5611 0.92393,-2.5488 0.92393,-0.9876 2.42134,-0.9876 1.52927,0 3.05853,1.2107 1.52927,1.2425 2.67622,3.3452 3.05854,5.7666 3.05854,12.043 z m -18.44679,-2.1346 q 0,-1.4018 -1.14695,-2.4532 -1.14695,-1.0195 -2.73993,-1.0195 -1.52927,0 -2.48506,0.7328 -0.92393,0.7327 -0.92393,1.9434 0,2.5488 4.30106,2.5488 1.75228,0 2.35762,-0.3823 0.60533,-0.3505 0.63719,-1.37 z"
                 inkscape:connector-curvature="0" />
              <path
                 id="path4775"
                 style="font-style:normal;font-variant:normal;font-weight:normal;font-stretch:normal;font-size:65.24871826px;font-family:'Cooper Black';-inkscape-font-specification:'Cooper Black, '"
                 d="m 336.97023,1078.3362 -11.21463,0.446 q -1.27439,0.064 -1.87972,0.3823 -0.60534,0.3505 -2.32576,1.9753 -0.50976,0.4779 -1.43369,0.4779 -2.10274,0 -2.93109,-2.5169 -0.82836,-2.5169 -0.82836,-8.9844 0,-4.3967 0.76464,-6.2127 0.79649,-1.8797 2.58064,-1.8797 0.63719,0 0.92393,0.1912 0.31859,0.1911 1.4974,1.2744 1.33811,1.2743 8.92073,1.2743 4.39664,0 6.49938,-1.0195 1.68857,-0.8283 1.68857,-3.0585 0,-2.1346 -1.36997,-2.9311 -1.36997,-0.7965 -4.97012,-0.7965 h -6.30822 q -1.87973,0 -2.58064,0.223 -0.70092,0.2549 -2.70808,1.593 -0.57347,0.3505 -1.30625,0.3505 -1.87972,0 -2.77179,-2.6125 -0.89208,-2.6125 -0.89208,-8.1561 0,-8.857 3.66387,-8.857 0.76464,0 1.14695,0.2549 0.41418,0.2867 1.14695,1.3062 0.60534,0.8284 1.36997,1.0514 0.79649,0.223 3.85503,0.4142 3.63201,0.223 7.61447,0.223 2.19832,0 2.86738,-0.3505 0.70091,-0.3186 1.68856,-1.9116 0.86022,-1.3699 2.10275,-1.3699 1.27438,0 2.07088,1.1151 0.82835,1.1151 2.07088,4.5878 1.08323,3.0585 1.816,5.894 0.76464,2.8355 0.76464,3.8869 0,0.9558 -0.70092,1.593 -0.70091,0.669 -1.6567,0.669 -0.0956,0 -0.7965,-0.032 -0.25487,-0.032 -0.44603,-0.032 -1.52927,0 -1.52927,1.2744 0,0.7646 1.21067,1.6249 3.95061,2.7399 3.95061,7.9649 0,4.0143 -2.10274,6.8817 -1.49741,2.0071 -3.53643,2.8036 -2.00717,0.7965 -5.92591,0.9877 z"
                 inkscape:connector-curvature="0" />
              <path
                 id="path4777"
                 style="font-style:normal;font-variant:normal;font-weight:normal;font-stretch:normal;font-size:65.24871826px;font-family:'Cooper Black';-inkscape-font-specification:'Cooper Black, '"
                 d="M 357.93393,1120.7096 H 328.846 q -2.48506,0 -3.18598,0.1912 -0.70091,0.223 -1.36996,1.1788 -0.7965,1.147 -1.40183,1.5293 -0.60534,0.4141 -1.46555,0.4141 -2.54878,0 -3.88689,-5.1294 -1.17881,-4.6196 -1.17881,-9.2393 0,-1.0195 0.3186,-1.3381 0.28674,-0.2867 1.43369,-0.3823 1.62485,-0.1593 1.62485,-1.147 0,-0.5416 -0.9558,-1.6885 -2.64435,-3.2497 -2.64435,-7.2322 0,-4.9382 3.66386,-8.8889 2.19833,-2.3257 5.0657,-3.7594 3.72759,-1.9116 7.55076,-1.9116 4.49222,0 8.66584,2.4851 3.85503,2.2939 5.92591,6.2445 1.72043,3.3134 1.72043,6.5312 0,3.6958 -1.65671,6.6268 -0.25488,0.4779 -0.25488,0.7647 0,1.0195 2.73994,1.0195 1.17881,0 1.78414,-0.5735 0.6372,-0.5416 1.08323,-1.9753 0.6372,-2.0071 2.23018,-2.0071 2.32576,0 3.63201,4.6196 2.26204,8.1561 2.26204,10.9279 0,2.7399 -2.61249,2.7399 z m -16.02545,-17.2998 q 0,-2.0709 -2.19832,-3.2816 -2.93109,-1.6248 -7.71005,-1.6248 -4.33292,0 -6.53124,1.5611 -1.59299,1.1151 -1.59299,3.0267 0,2.0709 2.38948,2.9948 2.42134,0.9558 7.77377,0.9558 4.9064,0 6.53125,-1.1151 1.27438,-0.8602 1.3381,-2.5169 z"
                 inkscape:connector-curvature="0" />
              <path
                 id="path4779"
                 style="font-style:normal;font-variant:normal;font-weight:normal;font-stretch:normal;font-size:65.24871826px;font-family:'Cooper Black';-inkscape-font-specification:'Cooper Black, '"
                 d="m 339.74202,1146.5479 q 0,0.7965 -0.0956,1.6885 -0.41417,3.8551 -0.41417,5.8941 0,2.0709 0.1593,2.9948 0.15929,1.0832 0.15929,1.4337 0,0.9876 -1.46554,0.9876 -1.36997,0 -3.50457,-0.6053 -2.1346,-0.6053 -4.07805,-1.5611 -1.4974,-0.7647 -2.03902,-1.3063 -0.54162,-0.5097 -0.54162,-1.2106 0,-0.6054 0.1593,-1.5612 0.4779,-2.8355 0.4779,-6.5312 0,-1.5611 -0.12744,-2.8674 -0.0956,-1.0514 -0.0956,-1.593 0,-1.3062 1.52927,-1.3062 1.01951,0 3.44085,0.7327 2.42134,0.7647 3.72759,1.4656 1.52926,0.8602 2.10274,1.5293 0.57347,0.7009 0.60533,1.816 z"
                 inkscape:connector-curvature="0" />
              <path
                 id="path4781"
                 style="font-style:normal;font-variant:normal;font-weight:normal;font-stretch:normal;font-size:65.24871826px;font-family:'Cooper Black';-inkscape-font-specification:'Cooper Black, '"
                 d="m 339.00925,1218.2959 -12.90319,6.0215 q -1.78414,0.8602 -2.35762,1.4337 -0.54161,0.5735 -0.73277,1.7523 -0.35046,2.2939 -2.32576,2.2939 -2.32576,0 -3.34527,-2.8037 -1.01952,-2.8036 -1.01952,-9.1756 0,-7.2003 0.60534,-10.673 0.28674,-1.593 1.14695,-2.5488 0.89207,-0.9239 2.1346,-0.9239 0.95579,0 1.46555,0.4779 0.54161,0.5098 0.98765,1.8479 0.50976,1.4974 1.72043,1.4974 2.1346,0 2.51691,-2.5807 0.38232,-2.7718 0.38232,-7.8056 0,-4.2373 -0.50976,-5.0657 -0.31859,-0.5098 -1.14695,-0.8921 -0.82835,-0.3823 -1.59298,-0.3823 -0.70092,0 -0.92393,0.2549 -0.19116,0.2867 -0.66906,1.7841 -0.57347,1.9435 -2.2939,1.9435 -3.79131,0 -3.79131,-9.08 0,-5.1613 0.70092,-7.5827 0.66905,-2.2301 2.93109,-2.2301 0.98765,0 1.52927,0.4779 0.54162,0.5097 0.98765,1.7841 0.73278,2.0709 2.03902,3.1223 1.33811,1.0832 5.67103,3.0585 l 9.84466,4.4922 q 5.41615,2.4851 8.09237,3.3134 2.70808,0.8602 5.28871,0.8921 2.73994,0.032 3.79131,0.3186 1.08323,0.3186 2.10274,1.37 2.23019,2.1983 2.23019,5.6073 0,3.2178 -2.51692,6.1489 -3.44085,4.078 -20.03977,11.8518 z m -4.01433,-22.1743 v 6.2445 q 0,1.7204 0.76464,1.7204 1.05137,0 5.16127,-2.3895 1.87973,-1.0832 2.51692,-1.6567 0.6372,-0.5735 0.6372,-1.2107 0,-1.1469 -2.13461,-1.9116 -0.28673,-0.1274 -2.26204,-0.9239 -3.24969,-1.3381 -3.88688,-1.3381 -0.7965,0 -0.7965,1.4656 z"
                 inkscape:connector-curvature="0" />
              <path
                 id="path4783"
                 style="font-style:normal;font-variant:normal;font-weight:normal;font-stretch:normal;font-size:65.24871826px;font-family:'Cooper Black';-inkscape-font-specification:'Cooper Black, '"
                 d="m 336.97023,1269.6538 -11.21463,0.4461 q -1.27439,0.064 -1.87972,0.3823 -0.60534,0.3504 -2.32576,1.9753 -0.50976,0.4779 -1.43369,0.4779 -2.10274,0 -2.93109,-2.5169 -0.82836,-2.517 -0.82836,-8.9845 0,-4.3966 0.76464,-6.2126 0.79649,-1.8798 2.58064,-1.8798 0.63719,0 0.92393,0.1912 0.31859,0.1912 1.4974,1.2744 1.33811,1.2744 8.92073,1.2744 4.39664,0 6.49938,-1.0195 1.68857,-0.8284 1.68857,-3.0586 0,-2.1346 -1.36997,-2.9311 -1.36997,-0.7965 -4.97012,-0.7965 h -6.30822 q -1.87973,0 -2.58064,0.2231 -0.70092,0.2548 -2.70808,1.5929 -0.57347,0.3505 -1.30625,0.3505 -1.87972,0 -2.77179,-2.6125 -0.89208,-2.6125 -0.89208,-8.1561 0,-8.857 3.66387,-8.857 0.76464,0 1.14695,0.2549 0.41418,0.2867 1.14695,1.3062 0.60534,0.8284 1.36997,1.0514 0.79649,0.223 3.85503,0.4142 3.63201,0.223 7.61447,0.223 2.19832,0 2.86738,-0.3505 0.70091,-0.3185 1.68856,-1.9115 0.86022,-1.37 2.10275,-1.37 1.27438,0 2.07088,1.1151 0.82835,1.1151 2.07088,4.5878 1.08323,3.0585 1.816,5.894 0.76464,2.8356 0.76464,3.8869 0,0.9558 -0.70092,1.593 -0.70091,0.6691 -1.6567,0.6691 -0.0956,0 -0.7965,-0.032 -0.25487,-0.032 -0.44603,-0.032 -1.52927,0 -1.52927,1.2744 0,0.7647 1.21067,1.6249 3.95061,2.7399 3.95061,7.9649 0,4.0143 -2.10274,6.8817 -1.49741,2.0072 -3.53643,2.8037 -2.00717,0.7965 -5.92591,0.9876 z"
                 inkscape:connector-curvature="0" />
              <path
                 id="path4785"
                 style="font-style:normal;font-variant:normal;font-weight:normal;font-stretch:normal;font-size:65.24871826px;font-family:'Cooper Black';-inkscape-font-specification:'Cooper Black, '"
                 d="m 361.15176,1304.7951 q 0,3.632 -0.6372,6.8499 -0.86021,4.3329 -3.66386,4.3329 -0.92394,0 -1.40183,-0.4461 -0.44604,-0.4141 -1.33811,-2.1664 -0.73277,-1.4656 -3.21783,-1.9435 -2.48506,-0.446 -9.68536,-0.446 -12.17041,0 -15.06965,0.6053 -0.92393,0.2231 -1.43369,0.6691 -0.47789,0.4779 -1.05137,1.6248 -0.95579,2.1028 -2.77179,2.1028 -2.54878,0 -3.50457,-3.8869 -1.01952,-4.2055 -1.01952,-10.2907 0,-10.3863 3.95061,-10.3863 1.43369,0 2.67622,2.0391 0.95579,1.5611 2.61249,1.8478 3.63201,0.6054 15.42011,0.6054 8.15609,0 10.44999,-0.8284 1.30625,-0.446 2.35762,-2.1346 0.86021,-1.3062 1.43369,-1.7523 0.57347,-0.446 1.46555,-0.446 1.36996,0 2.16646,1.3062 0.82835,1.3381 1.46555,4.6834 0.79649,3.9825 0.79649,8.0605 z"
                 inkscape:connector-curvature="0" />
              <path
                 id="path4787"
                 style="font-style:normal;font-variant:normal;font-weight:normal;font-stretch:normal;font-size:65.24871826px;font-family:'Cooper Black';-inkscape-font-specification:'Cooper Black, '"
                 d="m 336.97023,1356.7265 -11.21463,0.446 q -1.27439,0.064 -1.87972,0.3823 -0.60534,0.3505 -2.32576,1.9753 -0.50976,0.4779 -1.43369,0.4779 -2.10274,0 -2.93109,-2.5169 -0.82836,-2.5169 -0.82836,-8.9845 0,-4.3966 0.76464,-6.2126 0.79649,-1.8797 2.58064,-1.8797 0.63719,0 0.92393,0.1911 0.31859,0.1912 1.4974,1.2744 1.33811,1.2744 8.92073,1.2744 4.39664,0 6.49938,-1.0195 1.68857,-0.8284 1.68857,-3.0585 0,-2.1346 -1.36997,-2.9311 -1.36997,-0.7965 -4.97012,-0.7965 h -6.30822 q -1.87973,0 -2.58064,0.223 -0.70092,0.2549 -2.70808,1.593 -0.57347,0.3504 -1.30625,0.3504 -1.87972,0 -2.77179,-2.6125 -0.89208,-2.6125 -0.89208,-8.1561 0,-8.857 3.66387,-8.857 0.76464,0 1.14695,0.2549 0.41418,0.2868 1.14695,1.3063 0.60534,0.8283 1.36997,1.0513 0.79649,0.2231 3.85503,0.4142 3.63201,0.223 7.61447,0.223 2.19832,0 2.86738,-0.3504 0.70091,-0.3186 1.68856,-1.9116 0.86022,-1.37 2.10275,-1.37 1.27438,0 2.07088,1.1151 0.82835,1.1151 2.07088,4.5878 1.08323,3.0586 1.816,5.8941 0.76464,2.8355 0.76464,3.8869 0,0.9557 -0.70092,1.5929 -0.70091,0.6691 -1.6567,0.6691 -0.0956,0 -0.7965,-0.032 -0.25487,-0.032 -0.44603,-0.032 -1.52927,0 -1.52927,1.2744 0,0.7646 1.21067,1.6248 3.95061,2.7399 3.95061,7.9649 0,4.0144 -2.10274,6.8817 -1.49741,2.0072 -3.53643,2.8037 -2.00717,0.7965 -5.92591,0.9877 z"
                 inkscape:connector-curvature="0" />
              <path
                 id="path4789"
                 style="font-style:normal;font-variant:normal;font-weight:normal;font-stretch:normal;font-size:65.24871826px;font-family:'Cooper Black';-inkscape-font-specification:'Cooper Black, '"
                 d="m 340.37922,1380.7805 h -10.76859 q -1.91158,0 -3.12225,0.924 -1.21067,0.9558 -1.21067,2.4213 0,1.2425 1.14695,3.2816 0.28674,0.4779 0.28674,0.9558 0,0.7646 -0.92394,1.4018 -0.92393,0.6372 -2.00716,0.6372 -1.9753,0 -3.79131,-2.1665 -3.85502,-4.5241 -3.85502,-10.9597 0,-5.0976 2.86737,-8.188 2.89924,-3.0904 7.61448,-3.0904 h 14.71919 q 0.73277,0 0.89207,-0.1911 0.19116,-0.1593 0.19116,-0.8921 v -3.2815 q 0,-0.924 0.28674,-1.1789 0.31859,-0.2548 1.43369,-0.2548 h 1.40182 q 0.95579,0.032 1.40183,0.7327 l 9.1756,14.5918 q 0.28674,0.5416 0.28674,1.3381 v 2.5806 q 0,0.7965 -0.38232,1.0514 -0.35045,0.2867 -1.43368,0.2867 h -4.30107 q -0.95579,0 -1.24253,0.2868 -0.28673,0.3186 -0.28673,1.3062 v 5.8941 q 0,1.1788 -0.44604,1.5293 -0.41418,0.3504 -1.81601,0.3504 h -1.87972 q -1.52927,0 -2.1346,-0.446 -0.57348,-0.4461 -0.57348,-1.6249 v -5.7666 q 0,-0.8921 -0.31859,-1.2107 -0.3186,-0.3186 -1.21067,-0.3186 z"
                 inkscape:connector-curvature="0" />
              <path
                 id="path4791"
                 style="font-style:normal;font-variant:normal;font-weight:normal;font-stretch:normal;font-size:65.24871826px;font-family:'Cooper Black';-inkscape-font-specification:'Cooper Black, '"
                 d="m 331.26734,1421.3061 v -14.9741 q 0,-0.9876 -0.86022,-0.9876 -2.07088,0 -3.91874,2.2302 -1.81601,2.262 -1.81601,4.8426 0,1.5293 0.57348,3.3772 0.60533,1.8797 1.46555,3.0904 0.76463,1.0832 0.76463,1.7204 0,0.8283 -1.01951,1.6248 -1.01951,0.7965 -2.10274,0.7965 -2.2939,0 -4.42851,-2.8674 -3.7913,-5.0656 -3.7913,-11.6925 0,-6.6905 3.88688,-11.2146 1.91159,-2.1983 4.61966,-3.632 3.60015,-1.8797 7.58262,-1.8797 5.35243,0 9.62163,3.2497 3.69573,2.8036 5.51174,7.1365 1.36997,3.2497 1.36997,7.041 0,6.0534 -3.44085,10.2907 -1.72043,2.1346 -4.07805,3.4409 -2.67622,1.4974 -5.22499,1.4974 -2.07089,0 -3.409,-0.8602 -1.30624,-0.8602 -1.30624,-2.2302 z m 5.95776,-14.1457 v 3.2178 q 0,2.039 1.87973,2.039 1.72042,0 2.80365,-0.9876 1.08323,-0.9877 1.08323,-2.5807 0,-1.7841 -1.40182,-2.8036 -1.30625,-0.9558 -2.64436,-0.9558 -0.95579,0 -1.33811,0.446 -0.38232,0.4779 -0.38232,1.6249 z"
                 inkscape:connector-curvature="0" />
              <path
                 id="path4793"
                 style="font-style:normal;font-variant:normal;font-weight:normal;font-stretch:normal;font-size:65.24871826px;font-family:'Cooper Black';-inkscape-font-specification:'Cooper Black, '"
                 d="m 348.53531,1441.537 q 0,1.6886 -0.4779,2.0391 -0.47789,0.3823 -3.05853,0.669 -1.40183,0.1593 -1.40183,0.9877 0,0.6372 0.92393,1.2106 3.98247,2.5488 3.98247,6.6587 0,2.8993 -1.87973,4.7471 -0.92393,0.8921 -2.38948,1.4656 -1.43368,0.5734 -2.77179,0.5734 -1.49741,0 -3.0904,-0.7009 -1.56112,-0.7009 -2.58063,-1.816 -1.94345,-2.039 -1.94345,-5.002 0,-1.6248 0.57348,-2.7399 0.57347,-1.0832 2.32576,-2.8674 0.66905,-0.669 0.66905,-1.2425 0,-0.8921 -1.01951,-1.1788 -0.98765,-0.2549 -4.20548,-0.2549 -4.81082,0 -6.56311,0.3505 -0.95579,0.223 -1.3381,0.6053 -0.35046,0.4142 -0.73278,1.7204 -0.86021,2.8674 -2.99481,2.8674 -1.30625,0 -2.2939,-0.9239 -0.95579,-0.924 -1.27439,-2.4532 -0.6372,-3.0586 -0.6372,-8.9845 0,-5.6391 0.98766,-8.5702 0.89207,-2.6125 3.09039,-2.6125 1.6567,0 2.96295,1.9116 0.60534,0.9239 1.08323,1.2743 0.50976,0.3505 1.36997,0.4779 2.89924,0.5098 10.73673,0.5098 1.43369,0 2.03902,-0.3186 0.6372,-0.3186 1.01951,-1.2744 0.89208,-2.262 2.58064,-2.262 1.52927,0 2.6125,1.5611 1.11509,1.5611 2.19832,5.225 1.46555,4.9064 1.49741,8.3472 z"
                 inkscape:connector-curvature="0" />
              <path
                 id="path4795"
                 style="font-style:normal;font-variant:normal;font-weight:normal;font-stretch:normal;font-size:65.24871826px;font-family:'Cooper Black';-inkscape-font-specification:'Cooper Black, '"
                 d="m 348.75833,1479.4183 q 0,5.5436 -2.80366,9.3986 -1.49741,2.039 -3.44085,2.8355 -1.91158,0.8283 -5.28872,0.8283 l -4.74709,-0.064 q -4.93826,0 -6.40381,0.7009 -0.70091,0.3505 -0.89207,0.6691 -0.19116,0.3186 -0.35046,1.3381 -0.1593,1.0195 -1.33811,1.0195 -1.52926,0 -3.18597,-1.2425 -1.65671,-1.2107 -2.7718,-3.1541 -1.40182,-2.3895 -1.40182,-5.002 0,-3.3453 2.2939,-5.2887 0.82835,-0.6691 0.82835,-1.2425 0,-0.6372 -0.79649,-1.6886 -2.32576,-3.186 -2.32576,-7.2322 0,-4.1736 1.78414,-6.7542 1.17881,-1.6886 3.05853,-2.6762 1.91159,-0.9877 3.98247,-0.9877 3.31341,0 5.86219,2.6762 4.01433,4.1736 4.04618,12.489 0,1.8479 0.35046,2.3258 0.38232,0.4779 1.72043,0.4779 3.37713,0 4.87454,-0.7009 1.52926,-0.7009 1.52926,-2.2939 0,-0.9558 -0.57347,-1.7205 -0.57348,-0.7327 -2.10275,-1.8478 -4.04618,-2.8355 -4.04618,-5.9259 0,-1.5612 0.92393,-2.5488 0.92393,-0.9877 2.42134,-0.9877 1.52927,0 3.05853,1.2107 1.52927,1.2425 2.67622,3.3453 3.05854,5.7666 3.05854,12.043 z m -18.44679,-2.1346 q 0,-1.4019 -1.14695,-2.4532 -1.14695,-1.0196 -2.73993,-1.0196 -1.52927,0 -2.48506,0.7328 -0.92393,0.7328 -0.92393,1.9435 0,2.5487 4.30106,2.5487 1.75228,0 2.35762,-0.3823 0.60533,-0.3504 0.63719,-1.3699 z"
                 inkscape:connector-curvature="0" />
              <path
                 id="path4797"
                 style="font-style:normal;font-variant:normal;font-weight:normal;font-stretch:normal;font-size:65.24871826px;font-family:'Cooper Black';-inkscape-font-specification:'Cooper Black, '"
                 d="m 348.72647,1516.6942 q 0,5.671 -2.83552,10.004 -2.70808,4.1099 -6.7224,4.1099 -2.7718,0 -4.49222,-1.9116 -1.62485,-1.7842 -1.62485,-4.3011 0,-2.6443 1.91158,-3.9825 0.60534,-0.4141 3.0904,-1.2106 2.67621,-0.8602 2.67621,-3.2816 0,-1.7523 -1.52926,-2.9629 -1.52927,-1.1788 -3.75945,-1.1788 -3.82317,0 -6.78612,2.7399 -2.38948,2.2302 -2.38948,5.6073 0,1.593 0.25488,2.6762 0.28673,1.0833 1.11509,2.8355 0.22302,0.4461 0.22302,0.9877 0,1.0832 -1.01952,1.9116 -1.01951,0.8283 -2.38948,0.8283 -1.43368,0 -3.02667,-1.1788 -1.56113,-1.1788 -2.73994,-3.0904 -2.54877,-4.1417 -2.54877,-9.7809 0,-6.5631 3.82316,-11.1828 4.84268,-5.9259 12.32972,-5.9259 7.2003,0 11.91553,5.5117 4.52409,5.2569 4.52409,12.7758 z"
                 inkscape:connector-curvature="0" />
              <path
                 id="path4799"
                 style="font-style:normal;font-variant:normal;font-weight:normal;font-stretch:normal;font-size:65.24871826px;font-family:'Cooper Black';-inkscape-font-specification:'Cooper Black, '"
                 d="m 340.37922,1551.8036 h -10.76859 q -1.91158,0 -3.12225,0.9239 -1.21067,0.9558 -1.21067,2.4213 0,1.2426 1.14695,3.2816 0.28674,0.4779 0.28674,0.9558 0,0.7646 -0.92394,1.4018 -0.92393,0.6372 -2.00716,0.6372 -1.9753,0 -3.79131,-2.1665 -3.85502,-4.524 -3.85502,-10.9597 0,-5.0976 2.86737,-8.188 2.89924,-3.0904 7.61448,-3.0904 h 14.71919 q 0.73277,0 0.89207,-0.1911 0.19116,-0.1593 0.19116,-0.8921 v -3.2815 q 0,-0.924 0.28674,-1.1788 0.31859,-0.2549 1.43369,-0.2549 h 1.40182 q 0.95579,0.032 1.40183,0.7328 l 9.1756,14.5917 q 0.28674,0.5416 0.28674,1.3381 v 2.5807 q 0,0.7964 -0.38232,1.0513 -0.35045,0.2868 -1.43368,0.2868 h -4.30107 q -0.95579,0 -1.24253,0.2867 -0.28673,0.3186 -0.28673,1.3062 v 5.8941 q 0,1.1788 -0.44604,1.5293 -0.41418,0.3504 -1.81601,0.3504 h -1.87972 q -1.52927,0 -2.1346,-0.446 -0.57348,-0.4461 -0.57348,-1.6249 v -5.7666 q 0,-0.892 -0.31859,-1.2106 -0.3186,-0.3186 -1.21067,-0.3186 z"
                 inkscape:connector-curvature="0" />
              <path
                 id="path4801"
                 style="font-style:normal;font-variant:normal;font-weight:normal;font-stretch:normal;font-size:65.24871826px;font-family:'Cooper Black';-inkscape-font-specification:'Cooper Black, '"
                 d="m 346.52814,1580.7959 h -18.5105 q -2.19832,0 -3.21783,0.3823 -1.01951,0.4142 -1.87972,1.6249 -0.70092,0.9876 -1.21067,1.3062 -0.4779,0.3505 -1.24253,0.3505 -4.10991,0 -4.10991,-10.4182 0,-5.6073 0.89208,-8.8888 0.31859,-1.1151 1.11509,-1.816 0.79649,-0.6691 1.816,-0.6691 0.86021,0 1.33811,0.3505 0.4779,0.3504 1.52927,1.7841 0.73277,0.9877 2.38948,1.4018 1.6567,0.4142 4.93825,0.4142 1.05137,0 3.91875,-0.1593 2.89923,-0.1274 3.37713,-0.1911 1.30625,-0.1912 2.00716,-1.7842 0.86022,-1.9753 2.54878,-1.9753 2.00716,0 2.99482,2.5806 1.36996,3.5683 2.32576,7.6464 0.95579,4.078 0.95579,6.3082 0,1.7523 -1.97531,1.7523 z m 13.95456,-6.3082 q 0,2.7718 -1.05137,4.3966 -1.01951,1.6249 -2.77179,1.6249 -2.4532,0 -3.88689,-2.4532 -2.26204,-3.8869 -2.26204,-9.3987 0,-2.3257 0.89207,-3.6957 1.14695,-1.8479 3.18598,-1.8479 2.73993,0 4.30106,3.9188 1.59298,3.9825 1.59298,7.4552 z"
                 inkscape:connector-curvature="0" />
              <path
                 id="path4803"
                 style="font-style:normal;font-variant:normal;font-weight:normal;font-stretch:normal;font-size:65.24871826px;font-family:'Cooper Black';-inkscape-font-specification:'Cooper Black, '"
                 d="m 338.75437,1619.6647 -16.0573,-8.2516 q -3.72759,-1.9116 -5.19314,-3.2497 -1.43368,-1.3381 -1.43368,-2.8674 0,-1.4974 1.08323,-2.4213 2.16646,-1.9435 4.9064,-3.409 l 17.17239,-9.0482 q 1.40183,-0.7328 2.00716,-1.4337 0.63719,-0.669 0.95579,-1.8797 0.70092,-2.4214 2.6125,-2.4214 1.94344,0 2.83551,2.9949 0.89208,2.9948 0.89208,9.4623 0,5.4162 -0.7965,7.9649 -0.76463,2.5807 -2.38948,2.5807 -1.14695,0 -2.19832,-1.2107 -0.70091,-0.7646 -1.05137,-0.9877 -0.35045,-0.223 -0.89207,-0.223 -1.08323,0 -3.60015,1.4019 -2.4532,1.4018 -2.4532,2.6125 0,0.7964 0.60534,1.3062 0.60533,0.5098 3.12225,1.8479 1.84786,0.9876 2.80366,0.9876 0.76463,0 1.816,-1.0195 1.14695,-1.0832 2.1346,-1.0832 1.52927,0 2.19832,2.0071 0.66906,2.0391 0.66906,6.6587 0,6.4994 -2.80366,6.4994 -1.62484,0 -2.35762,-2.3258 -0.57347,-1.816 -1.24253,-2.485 -0.66905,-0.6372 -3.34527,-2.0072 z"
                 inkscape:connector-curvature="0" />
              <path
                 id="path4805"
                 style="font-style:normal;font-variant:normal;font-weight:normal;font-stretch:normal;font-size:65.24871826px;font-family:'Cooper Black';-inkscape-font-specification:'Cooper Black, '"
                 d="m 331.26734,1655.6981 v -14.974 q 0,-0.9877 -0.86022,-0.9877 -2.07088,0 -3.91874,2.2302 -1.81601,2.262 -1.81601,4.8427 0,1.5292 0.57348,3.3771 0.60533,1.8797 1.46555,3.0904 0.76463,1.0832 0.76463,1.7204 0,0.8284 -1.01951,1.6249 -1.01951,0.7965 -2.10274,0.7965 -2.2939,0 -4.42851,-2.8674 -3.7913,-5.0657 -3.7913,-11.6925 0,-6.6906 3.88688,-11.2147 1.91159,-2.1983 4.61966,-3.632 3.60015,-1.8797 7.58262,-1.8797 5.35243,0 9.62163,3.2497 3.69573,2.8037 5.51174,7.1366 1.36997,3.2497 1.36997,7.041 0,6.0533 -3.44085,10.2907 -1.72043,2.1346 -4.07805,3.4408 -2.67622,1.4974 -5.22499,1.4974 -2.07089,0 -3.409,-0.8602 -1.30624,-0.8602 -1.30624,-2.2302 z m 5.95776,-14.1457 v 3.2178 q 0,2.0391 1.87973,2.0391 1.72042,0 2.80365,-0.9877 1.08323,-0.9876 1.08323,-2.5806 0,-1.7842 -1.40182,-2.8037 -1.30625,-0.9558 -2.64436,-0.9558 -0.95579,0 -1.33811,0.4461 -0.38232,0.4779 -0.38232,1.6248 z"
                 inkscape:connector-curvature="0" />
              <path
                 id="path4807"
                 style="font-style:normal;font-variant:normal;font-weight:normal;font-stretch:normal;font-size:65.24871826px;font-family:'Cooper Black';-inkscape-font-specification:'Cooper Black, '"
                 d="m 316.99418,1691.6041 v -2.2939 q 0,-2.0072 -0.19116,-4.4922 -0.12744,-1.5612 -0.12744,-2.1665 0,-2.1346 0.98765,-3.4727 0.98765,-1.3381 2.58064,-1.3381 1.11509,0 1.72043,0.5735 0.63719,0.6053 1.01951,1.9434 0.31859,1.2744 1.01951,1.7204 0.73277,0.4461 2.80365,0.7009 2.38948,0.2549 9.30304,0.4461 6.91356,0.223 13.73155,0.223 2.67621,0 3.56829,-0.4142 0.89207,-0.4142 1.43368,-1.9434 0.82836,-2.1983 2.83552,-2.1983 1.56113,0 2.42134,1.4974 0.89207,1.5292 0.89207,4.2373 0,0.8921 -0.0319,2.1027 -0.0956,2.6763 -0.0956,3.8869 0,4.556 0.28674,10.2907 0.0637,1.2107 0.0637,3.0267 0,7.2959 -1.65671,11.5332 -2.48506,6.3082 -8.34725,9.4942 -5.16127,2.8355 -12.29785,2.8355 -3.60015,0 -7.23216,-1.0513 -3.60015,-1.0514 -6.2445,-2.8356 -5.35244,-3.6957 -7.5189,-10.1951 -1.27439,-3.8231 -1.27439,-8.1561 l 0.12744,-3.855 0.0956,-3.3134 q 0.12744,-3.855 0.12744,-6.7861 z m 34.53594,6.6905 h -24.65943 q -2.00716,0 -2.86737,0.8602 -0.82835,0.8603 -0.82835,2.8674 0,9.3031 14.14571,9.3031 7.80564,0 12.1067,-2.1665 4.7471,-2.3895 4.7471,-8.0924 0,-1.5292 -0.60534,-2.1664 -0.60533,-0.6054 -2.03902,-0.6054 z"
                 inkscape:connector-curvature="0" />
              <path
                 id="path4809"
                 style="font-style:normal;font-variant:normal;font-weight:normal;font-stretch:normal;font-size:65.24871826px;font-family:'Cooper Black';-inkscape-font-specification:'Cooper Black, '"
                 d="m 348.75833,1748.7285 q 0,5.5436 -2.80366,9.3986 -1.49741,2.039 -3.44085,2.8355 -1.91158,0.8284 -5.28872,0.8284 l -4.74709,-0.064 q -4.93826,0 -6.40381,0.7009 -0.70091,0.3504 -0.89207,0.669 -0.19116,0.3186 -0.35046,1.3381 -0.1593,1.0196 -1.33811,1.0196 -1.52926,0 -3.18597,-1.2426 -1.65671,-1.2106 -2.7718,-3.1541 -1.40182,-2.3895 -1.40182,-5.002 0,-3.3452 2.2939,-5.2887 0.82835,-0.669 0.82835,-1.2425 0,-0.6372 -0.79649,-1.6886 -2.32576,-3.1859 -2.32576,-7.2321 0,-4.1737 1.78414,-6.7543 1.17881,-1.6886 3.05853,-2.6762 1.91159,-0.9877 3.98247,-0.9877 3.31341,0 5.86219,2.6763 4.01433,4.1736 4.04618,12.489 0,1.8478 0.35046,2.3257 0.38232,0.4779 1.72043,0.4779 3.37713,0 4.87454,-0.7009 1.52926,-0.7009 1.52926,-2.2939 0,-0.9558 -0.57347,-1.7204 -0.57348,-0.7328 -2.10275,-1.8479 -4.04618,-2.8355 -4.04618,-5.9259 0,-1.5611 0.92393,-2.5488 0.92393,-0.9876 2.42134,-0.9876 1.52927,0 3.05853,1.2107 1.52927,1.2425 2.67622,3.3452 3.05854,5.7666 3.05854,12.043 z m -18.44679,-2.1346 q 0,-1.4018 -1.14695,-2.4532 -1.14695,-1.0195 -2.73993,-1.0195 -1.52927,0 -2.48506,0.7328 -0.92393,0.7327 -0.92393,1.9434 0,2.5488 4.30106,2.5488 1.75228,0 2.35762,-0.3823 0.60533,-0.3505 0.63719,-1.37 z"
                 inkscape:connector-curvature="0" />
              <path
                 id="path4811"
                 style="font-style:normal;font-variant:normal;font-weight:normal;font-stretch:normal;font-size:65.24871826px;font-family:'Cooper Black';-inkscape-font-specification:'Cooper Black, '"
                 d="m 340.37922,1786.4504 h -10.76859 q -1.91158,0 -3.12225,0.9239 -1.21067,0.9558 -1.21067,2.4214 0,1.2425 1.14695,3.2815 0.28674,0.4779 0.28674,0.9558 0,0.7647 -0.92394,1.4019 -0.92393,0.6371 -2.00716,0.6371 -1.9753,0 -3.79131,-2.1664 -3.85502,-4.5241 -3.85502,-10.9598 0,-5.0975 2.86737,-8.1879 2.89924,-3.0904 7.61448,-3.0904 h 14.71919 q 0.73277,0 0.89207,-0.1912 0.19116,-0.1593 0.19116,-0.892 v -3.2816 q 0,-0.9239 0.28674,-1.1788 0.31859,-0.2549 1.43369,-0.2549 h 1.40182 q 0.95579,0.032 1.40183,0.7328 l 9.1756,14.5918 q 0.28674,0.5416 0.28674,1.3381 v 2.5806 q 0,0.7965 -0.38232,1.0514 -0.35045,0.2867 -1.43368,0.2867 h -4.30107 q -0.95579,0 -1.24253,0.2867 -0.28673,0.3186 -0.28673,1.3063 v 5.894 q 0,1.1789 -0.44604,1.5293 -0.41418,0.3505 -1.81601,0.3505 h -1.87972 q -1.52927,0 -2.1346,-0.4461 -0.57348,-0.446 -0.57348,-1.6248 v -5.7666 q 0,-0.8921 -0.31859,-1.2107 -0.3186,-0.3186 -1.21067,-0.3186 z"
                 inkscape:connector-curvature="0" />
              <path
                 id="path4813"
                 style="font-style:normal;font-variant:normal;font-weight:normal;font-stretch:normal;font-size:65.24871826px;font-family:'Cooper Black';-inkscape-font-specification:'Cooper Black, '"
                 d="m 348.75833,1816.1118 q 0,5.5436 -2.80366,9.3986 -1.49741,2.039 -3.44085,2.8355 -1.91158,0.8284 -5.28872,0.8284 l -4.74709,-0.064 q -4.93826,0 -6.40381,0.7009 -0.70091,0.3504 -0.89207,0.669 -0.19116,0.3186 -0.35046,1.3381 -0.1593,1.0196 -1.33811,1.0196 -1.52926,0 -3.18597,-1.2426 -1.65671,-1.2106 -2.7718,-3.1541 -1.40182,-2.3895 -1.40182,-5.002 0,-3.3452 2.2939,-5.2887 0.82835,-0.669 0.82835,-1.2425 0,-0.6372 -0.79649,-1.6886 -2.32576,-3.1859 -2.32576,-7.2321 0,-4.1737 1.78414,-6.7543 1.17881,-1.6886 3.05853,-2.6762 1.91159,-0.9877 3.98247,-0.9877 3.31341,0 5.86219,2.6763 4.01433,4.1736 4.04618,12.489 0,1.8478 0.35046,2.3257 0.38232,0.4779 1.72043,0.4779 3.37713,0 4.87454,-0.7009 1.52926,-0.7009 1.52926,-2.2939 0,-0.9558 -0.57347,-1.7204 -0.57348,-0.7328 -2.10275,-1.8479 -4.04618,-2.8355 -4.04618,-5.9259 0,-1.5611 0.92393,-2.5488 0.92393,-0.9876 2.42134,-0.9876 1.52927,0 3.05853,1.2107 1.52927,1.2425 2.67622,3.3452 3.05854,5.7666 3.05854,12.043 z m -18.44679,-2.1346 q 0,-1.4018 -1.14695,-2.4532 -1.14695,-1.0195 -2.73993,-1.0195 -1.52927,0 -2.48506,0.7328 -0.92393,0.7327 -0.92393,1.9434 0,2.5488 4.30106,2.5488 1.75228,0 2.35762,-0.3823 0.60533,-0.3505 0.63719,-1.37 z"
                 inkscape:connector-curvature="0" />
              <path
                 id="path4815"
                 style="font-style:normal;font-variant:normal;font-weight:normal;font-stretch:normal;font-size:65.24871826px;font-family:'Cooper Black';-inkscape-font-specification:'Cooper Black, '"
                 d="m 338.75437,1867.2149 -16.0573,-8.2517 q -3.72759,-1.9116 -5.19314,-3.2497 -1.43368,-1.3381 -1.43368,-2.8673 0,-1.4974 1.08323,-2.4214 2.16646,-1.9434 4.9064,-3.409 l 17.17239,-9.0481 q 1.40183,-0.7328 2.00716,-1.4337 0.63719,-0.6691 0.95579,-1.8797 0.70092,-2.4214 2.6125,-2.4214 1.94344,0 2.83551,2.9948 0.89208,2.9948 0.89208,9.4624 0,5.4161 -0.7965,7.9649 -0.76463,2.5806 -2.38948,2.5806 -1.14695,0 -2.19832,-1.2106 -0.70091,-0.7647 -1.05137,-0.9877 -0.35045,-0.223 -0.89207,-0.223 -1.08323,0 -3.60015,1.4018 -2.4532,1.4019 -2.4532,2.6125 0,0.7965 0.60534,1.3063 0.60533,0.5097 3.12225,1.8478 1.84786,0.9877 2.80366,0.9877 0.76463,0 1.816,-1.0195 1.14695,-1.0833 2.1346,-1.0833 1.52927,0 2.19832,2.0072 0.66906,2.039 0.66906,6.6587 0,6.4994 -2.80366,6.4994 -1.62484,0 -2.35762,-2.3258 -0.57347,-1.816 -1.24253,-2.485 -0.66905,-0.6372 -3.34527,-2.0072 z"
                 inkscape:connector-curvature="0" />
              <path
                 id="path4817"
                 style="font-style:normal;font-variant:normal;font-weight:normal;font-stretch:normal;font-size:65.24871826px;font-family:'Cooper Black';-inkscape-font-specification:'Cooper Black, '"
                 d="m 346.52814,1893.3717 h -18.5105 q -2.19832,0 -3.21783,0.3823 -1.01951,0.4142 -1.87972,1.6249 -0.70092,0.9876 -1.21067,1.3062 -0.4779,0.3505 -1.24253,0.3505 -4.10991,0 -4.10991,-10.4182 0,-5.6073 0.89208,-8.8888 0.31859,-1.1151 1.11509,-1.816 0.79649,-0.6691 1.816,-0.6691 0.86021,0 1.33811,0.3505 0.4779,0.3504 1.52927,1.7841 0.73277,0.9877 2.38948,1.4018 1.6567,0.4142 4.93825,0.4142 1.05137,0 3.91875,-0.1593 2.89923,-0.1274 3.37713,-0.1911 1.30625,-0.1912 2.00716,-1.7842 0.86022,-1.9753 2.54878,-1.9753 2.00716,0 2.99482,2.5807 1.36996,3.5682 2.32576,7.6463 0.95579,4.078 0.95579,6.3082 0,1.7523 -1.97531,1.7523 z m 13.95456,-6.3082 q 0,2.7718 -1.05137,4.3966 -1.01951,1.6249 -2.77179,1.6249 -2.4532,0 -3.88689,-2.4532 -2.26204,-3.8869 -2.26204,-9.3987 0,-2.3257 0.89207,-3.6957 1.14695,-1.8478 3.18598,-1.8478 2.73993,0 4.30106,3.9187 1.59298,3.9825 1.59298,7.4552 z"
                 inkscape:connector-curvature="0" />
              <path
                 id="path4819"
                 style="font-style:normal;font-variant:normal;font-weight:normal;font-stretch:normal;font-size:65.24871826px;font-family:'Cooper Black';-inkscape-font-specification:'Cooper Black, '"
                 d="m 347.92997,1915.1956 v 8.4428 q 0,2.9311 -0.12744,3.7276 -0.0956,0.8283 -0.54161,1.2425 -0.54162,0.5416 -1.43369,0.5416 -1.17881,0 -3.02667,-1.0513 l -15.00593,-8.4429 q -1.87973,-1.0513 -2.64436,-1.0513 -1.49741,0 -1.49741,2.262 0,1.6249 0.6372,2.5806 0.66905,0.9877 2.2939,1.8479 1.46554,0.7328 1.94344,1.2107 0.50976,0.4779 0.50976,1.1469 0,1.4019 -1.1151,2.2939 -1.11509,0.8921 -2.86737,0.8921 -1.9753,0 -4.23734,-1.0832 -2.23018,-1.0833 -3.72759,-2.74 -1.11509,-1.2425 -1.11509,-2.3576 0,-0.4779 0.31859,-1.2425 0.66906,-1.5611 0.70092,-3.6957 v -16.6945 q 0,-4.2374 2.4532,-4.2374 0.54161,0 1.14695,0.3186 0.60533,0.3186 3.79131,2.2302 l 11.72437,7.2959 q 3.2497,2.039 4.10991,2.039 1.27439,0 1.27439,-2.6762 0,-1.37 -0.54162,-2.1983 -0.50975,-0.7965 -1.94344,-1.7205 -1.72043,-1.0513 -2.23018,-1.6248 -0.4779,-0.5416 -0.4779,-1.4656 0,-1.2425 0.95579,-2.039 0.98766,-0.7965 2.48506,-0.7965 2.86738,0 6.18079,1.9435 3.15411,1.8478 3.15411,3.5364 0,0.3823 -0.22302,1.0195 -0.60533,1.7523 -0.70091,2.7718 -0.0956,1.0514 -0.22302,7.7738 z"
                 inkscape:connector-curvature="0" />
              <path
                 id="path4821"
                 style="font-style:normal;font-variant:normal;font-weight:normal;font-stretch:normal;font-size:65.24871826px;font-family:'Cooper Black';-inkscape-font-specification:'Cooper Black, '"
                 d="m 346.91046,1949.9227 h -17.26797 q -5.54359,0 -5.54359,3.6639 0,0.9239 0.50975,1.816 0.54162,0.8921 1.30625,1.2425 1.52927,0.7009 6.81798,0.7009 5.225,0 7.13658,-0.3504 0.79649,-0.1275 1.14695,-0.446 0.38232,-0.3186 0.86021,-1.2107 0.9558,-1.816 2.42134,-1.816 1.97531,0 2.73994,3.1222 1.46555,5.9259 1.46555,11.6926 0,3.2178 -3.40899,3.2178 -0.35046,0 -1.43369,-0.032 -1.52927,-0.064 -3.72759,-0.096 h -14.05014 q -1.08323,0 -1.9753,1.8479 -0.76463,1.5611 -2.23018,1.5611 -2.86738,0 -4.4285,-6.7861 -0.92394,-3.9825 -0.92394,-7.71 0,-1.5293 0.35046,-2.1028 0.35046,-0.5416 1.36997,-0.6372 1.9753,-0.1593 1.9753,-1.2106 0,-0.3824 -0.19116,-0.701 -0.15929,-0.3186 -1.27438,-1.9434 -2.19833,-3.2178 -2.19833,-6.9136 0,-6.117 3.53643,-8.634 2.96296,-2.1346 9.9721,-2.1346 2.6125,0 4.46036,0.032 1.08323,0 1.46555,0 2.73993,0 4.01432,-0.5097 1.30625,-0.4779 2.03902,-1.7842 0.6372,-1.2425 1.01952,-1.593 0.38231,-0.3186 1.05137,-0.3186 2.42134,0 3.21783,3.6639 1.36997,6.2445 1.36997,12.489 0,1.8797 -1.59299,1.8797 z"
                 inkscape:connector-curvature="0" />
              <path
                 id="path4823"
                 style="font-style:normal;font-variant:normal;font-weight:normal;font-stretch:normal;font-size:65.24871826px;font-family:'Cooper Black';-inkscape-font-specification:'Cooper Black, '"
                 d="m 348.75833,1994.8768 q 0,5.5436 -2.80366,9.3986 -1.49741,2.0391 -3.44085,2.8356 -1.91158,0.8283 -5.28872,0.8283 l -4.74709,-0.064 q -4.93826,0 -6.40381,0.7009 -0.70091,0.3505 -0.89207,0.6691 -0.19116,0.3185 -0.35046,1.3381 -0.1593,1.0195 -1.33811,1.0195 -1.52926,0 -3.18597,-1.2426 -1.65671,-1.2106 -2.7718,-3.1541 -1.40182,-2.3894 -1.40182,-5.0019 0,-3.3453 2.2939,-5.2888 0.82835,-0.669 0.82835,-1.2425 0,-0.6372 -0.79649,-1.6886 -2.32576,-3.1859 -2.32576,-7.2321 0,-4.1736 1.78414,-6.7543 1.17881,-1.6885 3.05853,-2.6762 1.91159,-0.9876 3.98247,-0.9876 3.31341,0 5.86219,2.6762 4.01433,4.1736 4.04618,12.489 0,1.8478 0.35046,2.3257 0.38232,0.4779 1.72043,0.4779 3.37713,0 4.87454,-0.7009 1.52926,-0.7009 1.52926,-2.2939 0,-0.9558 -0.57347,-1.7204 -0.57348,-0.7328 -2.10275,-1.8479 -4.04618,-2.8355 -4.04618,-5.9259 0,-1.5611 0.92393,-2.5487 0.92393,-0.9877 2.42134,-0.9877 1.52927,0 3.05853,1.2107 1.52927,1.2425 2.67622,3.3452 3.05854,5.7667 3.05854,12.043 z m -18.44679,-2.1346 q 0,-1.4018 -1.14695,-2.4532 -1.14695,-1.0195 -2.73993,-1.0195 -1.52927,0 -2.48506,0.7328 -0.92393,0.7328 -0.92393,1.9434 0,2.5488 4.30106,2.5488 1.75228,0 2.35762,-0.3823 0.60533,-0.3505 0.63719,-1.37 z"
                 inkscape:connector-curvature="0" />
              <path
                 id="path4825"
                 style="font-style:normal;font-variant:normal;font-weight:normal;font-stretch:normal;font-size:65.24871826px;font-family:'Cooper Black';-inkscape-font-specification:'Cooper Black, '"
                 d="m 342.25894,2031.866 h -10.22697 q -6.78612,0 -7.90121,0.1911 -1.11509,0.223 -1.72043,1.593 -0.50975,1.1788 -0.95579,1.5611 -0.44604,0.4142 -1.27439,0.4142 -1.05137,0 -1.91158,-0.7646 -0.86021,-0.7328 -1.21067,-1.9753 -0.70092,-2.2939 -0.70092,-7.742 0,-6.1489 0.92394,-8.6339 0.41417,-1.147 1.27439,-1.8798 0.89207,-0.7327 1.84786,-0.7327 0.76463,0 1.17881,0.3823 0.41418,0.4142 0.98765,1.7523 0.54162,1.2425 2.96296,1.5292 4.14176,0.5098 11.78809,0.5098 7.77378,0 10.00396,-0.446 2.23018,-0.4461 3.31341,-2.2302 0.76463,-1.3381 1.43369,-1.8479 0.70091,-0.4779 1.68856,-0.4779 1.56113,0 2.70808,1.4974 1.17881,1.4974 2.16646,4.779 0.66905,2.1983 1.27439,5.7029 0.60533,3.5045 0.60533,5.0975 0,2.5169 -3.12225,2.5169 -1.01951,0 -4.68338,-0.3186 -5.70289,-0.4141 -10.44999,-0.4778 z"
                 inkscape:connector-curvature="0" />
              <path
                 id="path4827"
                 style="font-style:normal;font-variant:normal;font-weight:normal;font-stretch:normal;font-size:65.24871826px;font-family:'Cooper Black';-inkscape-font-specification:'Cooper Black, '"
                 d="m 346.52814,2055.2191 h -18.5105 q -2.19832,0 -3.21783,0.3823 -1.01951,0.4142 -1.87972,1.6249 -0.70092,0.9876 -1.21067,1.3062 -0.4779,0.3505 -1.24253,0.3505 -4.10991,0 -4.10991,-10.4182 0,-5.6073 0.89208,-8.8888 0.31859,-1.1151 1.11509,-1.816 0.79649,-0.6691 1.816,-0.6691 0.86021,0 1.33811,0.3505 0.4779,0.3504 1.52927,1.7841 0.73277,0.9877 2.38948,1.4019 1.6567,0.4141 4.93825,0.4141 1.05137,0 3.91875,-0.1593 2.89923,-0.1274 3.37713,-0.1911 1.30625,-0.1912 2.00716,-1.7842 0.86022,-1.9753 2.54878,-1.9753 2.00716,0 2.99482,2.5807 1.36996,3.5683 2.32576,7.6463 0.95579,4.078 0.95579,6.3082 0,1.7523 -1.97531,1.7523 z m 13.95456,-6.3082 q 0,2.7718 -1.05137,4.3966 -1.01951,1.6249 -2.77179,1.6249 -2.4532,0 -3.88689,-2.4532 -2.26204,-3.8869 -2.26204,-9.3986 0,-2.3258 0.89207,-3.6958 1.14695,-1.8478 3.18598,-1.8478 2.73993,0 4.30106,3.9187 1.59298,3.9825 1.59298,7.4552 z"
                 inkscape:connector-curvature="0" />
              <path
                 id="path4829"
                 style="font-style:normal;font-variant:normal;font-weight:normal;font-stretch:normal;font-size:65.24871826px;font-family:'Cooper Black';-inkscape-font-specification:'Cooper Black, '"
                 d="m 348.72647,2073.5066 q 0,1.5929 -0.70092,5.1931 -0.12744,0.7328 -0.12744,1.2107 0,0.5416 0.57348,2.1027 0.28674,0.7328 0.28674,1.2425 0,1.4656 -1.87973,2.963 -1.49741,1.2107 -3.28155,1.9753 -1.78414,0.7646 -3.09039,0.7646 -1.27439,0 -2.13461,-0.892 -0.82835,-0.8921 -0.82835,-2.2302 0,-1.1151 0.54162,-2.0072 0.54161,-0.8602 2.38948,-2.8036 1.9753,-2.0391 1.9753,-3.3772 0,-0.892 -0.66905,-1.5611 -0.6372,-0.6372 -1.52927,-0.6372 -1.56113,0 -2.9311,2.9948 -2.42134,5.3843 -5.28871,8.2517 -2.42134,2.4213 -5.92591,2.4213 -4.4285,0 -7.39146,-3.8869 -2.58063,-3.3452 -2.58063,-8.1879 0,-1.2425 0.41417,-4.5241 0.35046,-3.0904 0.35046,-3.4727 0,-0.4142 -0.0956,-0.9558 -0.12744,-0.9239 -0.12744,-1.3381 0,-1.4974 0.76463,-2.3576 1.17881,-1.3063 3.69573,-2.4214 2.54878,-1.115 4.36479,-1.115 2.93109,0 2.93109,2.2939 0,0.892 -0.60533,1.6248 -0.57348,0.7646 -3.12226,3.1541 -1.40183,1.3063 -1.94344,2.1665 -0.50976,0.8602 -0.50976,1.8478 0,1.0514 0.54162,1.6886 0.57347,0.6372 1.49741,0.6372 1.43368,0 2.61249,-2.4532 2.51692,-5.1294 5.19314,-7.4233 2.67622,-2.2621 6.18079,-2.2621 3.7913,0 6.53124,2.3258 3.91875,3.3134 3.91875,9.0482 z"
                 inkscape:connector-curvature="0" />
              <path
                 id="path4831"
                 style="font-style:normal;font-variant:normal;font-weight:normal;font-stretch:normal;font-size:65.24871826px;font-family:'Cooper Black';-inkscape-font-specification:'Cooper Black, '"
                 d="m 348.75833,2110.0497 q 0,5.5436 -2.80366,9.3986 -1.49741,2.039 -3.44085,2.8355 -1.91158,0.8284 -5.28872,0.8284 l -4.74709,-0.064 q -4.93826,0 -6.40381,0.7009 -0.70091,0.3505 -0.89207,0.6691 -0.19116,0.3186 -0.35046,1.3381 -0.1593,1.0195 -1.33811,1.0195 -1.52926,0 -3.18597,-1.2425 -1.65671,-1.2107 -2.7718,-3.1541 -1.40182,-2.3895 -1.40182,-5.002 0,-3.3453 2.2939,-5.2887 0.82835,-0.6691 0.82835,-1.2425 0,-0.6372 -0.79649,-1.6886 -2.32576,-3.186 -2.32576,-7.2322 0,-4.1736 1.78414,-6.7542 1.17881,-1.6886 3.05853,-2.6762 1.91159,-0.9877 3.98247,-0.9877 3.31341,0 5.86219,2.6762 4.01433,4.1736 4.04618,12.489 0,1.8479 0.35046,2.3258 0.38232,0.4779 1.72043,0.4779 3.37713,0 4.87454,-0.7009 1.52926,-0.7009 1.52926,-2.2939 0,-0.9558 -0.57347,-1.7204 -0.57348,-0.7328 -2.10275,-1.8479 -4.04618,-2.8355 -4.04618,-5.9259 0,-1.5611 0.92393,-2.5488 0.92393,-0.9876 2.42134,-0.9876 1.52927,0 3.05853,1.2106 1.52927,1.2425 2.67622,3.3453 3.05854,5.7666 3.05854,12.043 z m -18.44679,-2.1346 q 0,-1.4019 -1.14695,-2.4532 -1.14695,-1.0195 -2.73993,-1.0195 -1.52927,0 -2.48506,0.7327 -0.92393,0.7328 -0.92393,1.9435 0,2.5488 4.30106,2.5488 1.75228,0 2.35762,-0.3824 0.60533,-0.3504 0.63719,-1.3699 z"
                 inkscape:connector-curvature="0" />
              <path
                 id="path4833"
                 style="font-style:normal;font-variant:normal;font-weight:normal;font-stretch:normal;font-size:65.24871826px;font-family:'Cooper Black';-inkscape-font-specification:'Cooper Black, '"
                 d="m 340.37922,2147.7716 h -10.76859 q -1.91158,0 -3.12225,0.9239 -1.21067,0.9558 -1.21067,2.4213 0,1.2426 1.14695,3.2816 0.28674,0.4779 0.28674,0.9558 0,0.7646 -0.92394,1.4018 -0.92393,0.6372 -2.00716,0.6372 -1.9753,0 -3.79131,-2.1664 -3.85502,-4.5241 -3.85502,-10.9598 0,-5.0975 2.86737,-8.1879 2.89924,-3.0904 7.61448,-3.0904 h 14.71919 q 0.73277,0 0.89207,-0.1912 0.19116,-0.1593 0.19116,-0.8921 v -3.2815 q 0,-0.924 0.28674,-1.1788 0.31859,-0.2549 1.43369,-0.2549 h 1.40182 q 0.95579,0.032 1.40183,0.7328 l 9.1756,14.5917 q 0.28674,0.5416 0.28674,1.3381 v 2.5807 q 0,0.7965 -0.38232,1.0513 -0.35045,0.2868 -1.43368,0.2868 h -4.30107 q -0.95579,0 -1.24253,0.2867 -0.28673,0.3186 -0.28673,1.3063 v 5.894 q 0,1.1788 -0.44604,1.5293 -0.41418,0.3504 -1.81601,0.3504 h -1.87972 q -1.52927,0 -2.1346,-0.446 -0.57348,-0.446 -0.57348,-1.6248 v -5.7667 q 0,-0.892 -0.31859,-1.2106 -0.3186,-0.3186 -1.21067,-0.3186 z"
                 inkscape:connector-curvature="0" />
              <path
                 id="path4835"
                 style="font-style:normal;font-variant:normal;font-weight:normal;font-stretch:normal;font-size:65.24871826px;font-family:'Cooper Black';-inkscape-font-specification:'Cooper Black, '"
                 d="m 346.52814,2176.7639 h -18.5105 q -2.19832,0 -3.21783,0.3823 -1.01951,0.4142 -1.87972,1.6249 -0.70092,0.9876 -1.21067,1.3062 -0.4779,0.3505 -1.24253,0.3505 -4.10991,0 -4.10991,-10.4182 0,-5.6073 0.89208,-8.8888 0.31859,-1.1151 1.11509,-1.816 0.79649,-0.6691 1.816,-0.6691 0.86021,0 1.33811,0.3505 0.4779,0.3504 1.52927,1.7841 0.73277,0.9877 2.38948,1.4019 1.6567,0.4141 4.93825,0.4141 1.05137,0 3.91875,-0.1593 2.89923,-0.1274 3.37713,-0.1911 1.30625,-0.1912 2.00716,-1.7842 0.86022,-1.9753 2.54878,-1.9753 2.00716,0 2.99482,2.5807 1.36996,3.5683 2.32576,7.6463 0.95579,4.078 0.95579,6.3082 0,1.7523 -1.97531,1.7523 z m 13.95456,-6.3082 q 0,2.7718 -1.05137,4.3966 -1.01951,1.6249 -2.77179,1.6249 -2.4532,0 -3.88689,-2.4532 -2.26204,-3.8869 -2.26204,-9.3986 0,-2.3258 0.89207,-3.6958 1.14695,-1.8478 3.18598,-1.8478 2.73993,0 4.30106,3.9187 1.59298,3.9825 1.59298,7.4552 z"
                 inkscape:connector-curvature="0" />
              <path
                 id="path4837"
                 style="font-style:normal;font-variant:normal;font-weight:normal;font-stretch:normal;font-size:65.24871826px;font-family:'Cooper Black';-inkscape-font-specification:'Cooper Black, '"
                 d="m 348.75833,2202.0286 q 0,5.8304 -3.02668,10.227 -2.16646,3.1541 -5.63917,5.0657 -3.63201,1.9753 -7.58261,1.9753 -6.91357,0 -11.75624,-6.3401 -4.61966,-6.0533 -4.61966,-13.859 0,-7.6144 4.33292,-12.3297 4.20548,-4.5878 10.95974,-4.5878 7.5189,0 12.29786,5.6073 5.03384,5.8622 5.03384,14.2413 z m -7.3596,-2.5487 q 0,-1.4019 -1.05137,-2.2621 -1.01951,-0.8283 -2.73994,-0.8283 -1.91158,0 -5.22499,0.7009 -3.28156,0.7328 -5.83033,1.7204 -2.6125,0.9877 -2.6125,3.2178 0,2.8356 3.60015,2.8356 2.67621,0 6.08521,-0.7328 3.40899,-0.7009 5.54359,-1.7204 2.16646,-1.0514 2.23018,-2.9311 z"
                 inkscape:connector-curvature="0" />
              <path
                 id="path4839"
                 style="font-style:normal;font-variant:normal;font-weight:normal;font-stretch:normal;font-size:65.24871826px;font-family:'Cooper Black';-inkscape-font-specification:'Cooper Black, '"
                 d="m 336.97023,2260.2364 -11.21463,0.446 q -1.27439,0.064 -1.87972,0.3824 -0.60534,0.3504 -2.32576,1.9753 -0.50976,0.4779 -1.43369,0.4779 -2.10274,0 -2.93109,-2.517 -0.82836,-2.5169 -0.82836,-8.9844 0,-4.3967 0.76464,-6.2127 0.79649,-1.8797 2.58064,-1.8797 0.63719,0 0.92393,0.1912 0.31859,0.1911 1.4974,1.2744 1.33811,1.2744 8.92073,1.2744 4.39664,0 6.49938,-1.0196 1.68857,-0.8283 1.68857,-3.0585 0,-2.1346 -1.36997,-2.9311 -1.36997,-0.7965 -4.97012,-0.7965 h -6.30822 q -1.87973,0 -2.58064,0.223 -0.70092,0.2549 -2.70808,1.593 -0.57347,0.3505 -1.30625,0.3505 -1.87972,0 -2.77179,-2.6125 -0.89208,-2.6125 -0.89208,-8.1561 0,-8.857 3.66387,-8.857 0.76464,0 1.14695,0.2549 0.41418,0.2867 1.14695,1.3062 0.60534,0.8284 1.36997,1.0514 0.79649,0.223 3.85503,0.4142 3.63201,0.223 7.61447,0.223 2.19832,0 2.86738,-0.3505 0.70091,-0.3186 1.68856,-1.9116 0.86022,-1.3699 2.10275,-1.3699 1.27438,0 2.07088,1.1151 0.82835,1.1151 2.07088,4.5878 1.08323,3.0585 1.816,5.894 0.76464,2.8355 0.76464,3.8869 0,0.9558 -0.70092,1.593 -0.70091,0.669 -1.6567,0.669 -0.0956,0 -0.7965,-0.032 -0.25487,-0.032 -0.44603,-0.032 -1.52927,0 -1.52927,1.2744 0,0.7646 1.21067,1.6249 3.95061,2.7399 3.95061,7.9649 0,4.0143 -2.10274,6.8817 -1.49741,2.0072 -3.53643,2.8036 -2.00717,0.7965 -5.92591,0.9877 z"
                 inkscape:connector-curvature="0" />
              <path
                 id="path4841"
                 style="font-style:normal;font-variant:normal;font-weight:normal;font-stretch:normal;font-size:65.24871826px;font-family:'Cooper Black';-inkscape-font-specification:'Cooper Black, '"
                 d="m 348.56717,2297.2893 q 0,1.9435 -0.35046,2.4214 -0.3186,0.4779 -1.65671,0.4779 -1.17881,0 -1.17881,0.7646 0,0.3186 1.21067,2.1346 0.92394,1.37 1.52927,3.4727 0.6372,2.1346 0.6372,3.855 0,4.0462 -2.80366,7.2322 -2.1346,2.4213 -5.38429,3.7595 -3.40899,1.4018 -7.16844,1.4018 -8.02865,0 -13.22179,-5.4162 -4.04618,-4.1736 -4.04618,-9.4942 0,-2.708 1.27439,-5.5754 0.25487,-0.5735 0.25487,-0.924 0,-0.9557 -1.91158,-0.9557 -2.51692,0 -3.63201,1.6885 -1.05137,1.5611 -1.40183,1.8479 -0.38231,0.3186 -1.24253,0.3186 -1.91158,0 -2.93109,-2.1346 -1.05137,-2.1346 -1.05137,-6.0215 0,-6.9136 2.77179,-12.1067 1.40183,-2.6444 3.47271,-2.6444 0.9558,0 1.46555,0.3824 0.4779,0.4141 1.01951,1.5611 0.76464,1.6567 2.7718,2.0071 2.00716,0.3824 11.53322,0.5735 7.83749,-0.223 8.79328,-0.5735 0.3186,-0.1274 0.41418,-0.3823 0.0956,-0.223 0.35046,-1.5611 0.19116,-1.0195 0.92393,-1.6567 0.76463,-0.6372 1.816,-0.6372 1.27439,0 2.23018,0.8921 0.98766,0.892 1.91159,2.8992 3.53643,7.8056 3.60015,12.3934 z m -12.04298,3.1542 -8.76142,-0.4779 q -0.54162,-0.032 -1.05137,-0.032 -0.98766,0 -1.59299,0.8602 -0.60534,0.8602 -0.60534,2.2939 0,4.3967 7.23216,4.3967 4.68338,0 6.59497,-1.8479 1.1788,-1.147 1.1788,-2.7399 0,-2.2621 -2.99481,-2.4532 z"
                 inkscape:connector-curvature="0" />
              <path
                 id="path4843"
                 style="font-style:normal;font-variant:normal;font-weight:normal;font-stretch:normal;font-size:65.24871826px;font-family:'Cooper Black';-inkscape-font-specification:'Cooper Black, '"
                 d="m 348.53531,2339.9814 q 0,1.6885 -0.4779,2.039 -0.47789,0.3823 -3.05853,0.6691 -1.40183,0.1592 -1.40183,0.9876 0,0.6372 0.92393,1.2107 3.98247,2.5487 3.98247,6.6587 0,2.8992 -1.87973,4.7471 -0.92393,0.892 -2.38948,1.4655 -1.43368,0.5735 -2.77179,0.5735 -1.49741,0 -3.0904,-0.7009 -1.56112,-0.701 -2.58063,-1.816 -1.94345,-2.0391 -1.94345,-5.002 0,-1.6249 0.57348,-2.74 0.57347,-1.0832 2.32576,-2.8673 0.66905,-0.6691 0.66905,-1.2426 0,-0.892 -1.01951,-1.1788 -0.98765,-0.2548 -4.20548,-0.2548 -4.81082,0 -6.56311,0.3504 -0.95579,0.223 -1.3381,0.6053 -0.35046,0.4142 -0.73278,1.7205 -0.86021,2.8673 -2.99481,2.8673 -1.30625,0 -2.2939,-0.9239 -0.95579,-0.9239 -1.27439,-2.4532 -0.6372,-3.0585 -0.6372,-8.9844 0,-5.6392 0.98766,-8.5703 0.89207,-2.6125 3.09039,-2.6125 1.6567,0 2.96295,1.9116 0.60534,0.9239 1.08323,1.2744 0.50976,0.3504 1.36997,0.4779 2.89924,0.5097 10.73673,0.5097 1.43369,0 2.03902,-0.3186 0.6372,-0.3186 1.01951,-1.2744 0.89208,-2.262 2.58064,-2.262 1.52927,0 2.6125,1.5611 1.11509,1.5612 2.19832,5.225 1.46555,4.9064 1.49741,8.3473 z"
                 inkscape:connector-curvature="0" />
              <path
                 id="path4845"
                 style="font-style:normal;font-variant:normal;font-weight:normal;font-stretch:normal;font-size:65.24871826px;font-family:'Cooper Black';-inkscape-font-specification:'Cooper Black, '"
                 d="m 348.75833,2379.3281 q 0,5.8303 -3.02668,10.227 -2.16646,3.1541 -5.63917,5.0656 -3.63201,1.9754 -7.58261,1.9754 -6.91357,0 -11.75624,-6.3401 -4.61966,-6.0534 -4.61966,-13.859 0,-7.6145 4.33292,-12.3297 4.20548,-4.5878 10.95974,-4.5878 7.5189,0 12.29786,5.6073 5.03384,5.8622 5.03384,14.2413 z m -7.3596,-2.5488 q 0,-1.4018 -1.05137,-2.262 -1.01951,-0.8284 -2.73994,-0.8284 -1.91158,0 -5.22499,0.7009 -3.28156,0.7328 -5.83033,1.7204 -2.6125,0.9877 -2.6125,3.2179 0,2.8355 3.60015,2.8355 2.67621,0 6.08521,-0.7328 3.40899,-0.7009 5.54359,-1.7204 2.16646,-1.0514 2.23018,-2.9311 z"
                 inkscape:connector-curvature="0" />
              <path
                 id="path4847"
                 style="font-style:normal;font-variant:normal;font-weight:normal;font-stretch:normal;font-size:65.24871826px;font-family:'Cooper Black';-inkscape-font-specification:'Cooper Black, '"
                 d="m 345.98653,2417.8147 h -28.22772 q -4.30106,0 -6.62682,-0.6691 -2.32576,-0.669 -3.69573,-2.2939 -1.36997,-1.6567 -2.19832,-4.3329 -0.86021,-2.6444 -0.86021,-5.3843 0,-3.1222 1.24253,-5.225 1.24253,-2.0709 3.09039,-2.0709 0.82835,0 1.43369,0.5735 0.60533,0.6053 0.60533,1.4337 0,0.3823 -0.0956,1.0195 -0.0956,0.6372 -0.0956,0.7965 0,0.5735 0.54162,1.0195 0.54161,0.4779 1.21067,0.4779 0.3186,0 0.89207,-0.096 1.17881,-0.223 2.19832,-0.223 h 20.23093 q 1.43369,0 2.23018,-0.5098 0.79649,-0.4778 1.27439,-1.6885 0.73277,-1.816 2.19832,-1.816 1.68856,0 2.89923,1.4655 1.24253,1.4656 2.2939,4.779 0.73278,2.3576 1.36997,5.7347 0.6372,3.3772 0.6372,5.002 0,1.1151 -0.57348,1.5611 -0.57347,0.4461 -1.9753,0.4461 z m 14.49617,-6.7543 q 0,2.7718 -1.05137,4.3967 -1.01951,1.6248 -2.77179,1.6248 -2.4532,0 -3.88689,-2.4532 -2.26204,-3.8869 -2.26204,-9.3986 0,-2.2939 0.89207,-3.6957 1.17881,-1.8479 3.18598,-1.8479 2.73993,0 4.30106,3.9187 1.59298,3.9825 1.59298,7.4552 z"
                 inkscape:connector-curvature="0" />
              <path
                 id="path4849"
                 style="font-style:normal;font-variant:normal;font-weight:normal;font-stretch:normal;font-size:65.24871826px;font-family:'Cooper Black';-inkscape-font-specification:'Cooper Black, '"
                 d="m 331.26734,2452.7966 v -14.974 q 0,-0.9877 -0.86022,-0.9877 -2.07088,0 -3.91874,2.2302 -1.81601,2.262 -1.81601,4.8427 0,1.5292 0.57348,3.3771 0.60533,1.8797 1.46555,3.0904 0.76463,1.0832 0.76463,1.7204 0,0.8284 -1.01951,1.6249 -1.01951,0.7965 -2.10274,0.7965 -2.2939,0 -4.42851,-2.8674 -3.7913,-5.0657 -3.7913,-11.6925 0,-6.6906 3.88688,-11.2147 1.91159,-2.1983 4.61966,-3.632 3.60015,-1.8797 7.58262,-1.8797 5.35243,0 9.62163,3.2497 3.69573,2.8037 5.51174,7.1366 1.36997,3.2497 1.36997,7.041 0,6.0533 -3.44085,10.2907 -1.72043,2.1346 -4.07805,3.4408 -2.67622,1.4974 -5.22499,1.4974 -2.07089,0 -3.409,-0.8602 -1.30624,-0.8602 -1.30624,-2.2302 z m 5.95776,-14.1457 v 3.2179 q 0,2.039 1.87973,2.039 1.72042,0 2.80365,-0.9877 1.08323,-0.9876 1.08323,-2.5806 0,-1.7842 -1.40182,-2.8037 -1.30625,-0.9558 -2.64436,-0.9558 -0.95579,0 -1.33811,0.4461 -0.38232,0.4779 -0.38232,1.6248 z"
                 inkscape:connector-curvature="0" />
              <path
                 id="path4851"
                 style="font-style:normal;font-variant:normal;font-weight:normal;font-stretch:normal;font-size:65.24871826px;font-family:'Cooper Black';-inkscape-font-specification:'Cooper Black, '"
                 d="m 348.72647,2476.1179 q 0,5.671 -2.83552,10.004 -2.70808,4.1099 -6.7224,4.1099 -2.7718,0 -4.49222,-1.9116 -1.62485,-1.7842 -1.62485,-4.3011 0,-2.6443 1.91158,-3.9824 0.60534,-0.4142 3.0904,-1.2107 2.67621,-0.8602 2.67621,-3.2816 0,-1.7523 -1.52926,-2.9629 -1.52927,-1.1788 -3.75945,-1.1788 -3.82317,0 -6.78612,2.7399 -2.38948,2.2302 -2.38948,5.6073 0,1.593 0.25488,2.6762 0.28673,1.0833 1.11509,2.8355 0.22302,0.4461 0.22302,0.9877 0,1.0832 -1.01952,1.9116 -1.01951,0.8283 -2.38948,0.8283 -1.43368,0 -3.02667,-1.1788 -1.56113,-1.1788 -2.73994,-3.0904 -2.54877,-4.1417 -2.54877,-9.7809 0,-6.5631 3.82316,-11.1828 4.84268,-5.9259 12.32972,-5.9259 7.2003,0 11.91553,5.5118 4.52409,5.2568 4.52409,12.7757 z"
                 inkscape:connector-curvature="0" />
              <path
                 id="path4853"
                 style="font-style:normal;font-variant:normal;font-weight:normal;font-stretch:normal;font-size:65.24871826px;font-family:'Cooper Black';-inkscape-font-specification:'Cooper Black, '"
                 d="m 340.37922,2511.2274 h -10.76859 q -1.91158,0 -3.12225,0.9239 -1.21067,0.9558 -1.21067,2.4214 0,1.2425 1.14695,3.2815 0.28674,0.4779 0.28674,0.9558 0,0.7646 -0.92394,1.4018 -0.92393,0.6372 -2.00716,0.6372 -1.9753,0 -3.79131,-2.1664 -3.85502,-4.5241 -3.85502,-10.9598 0,-5.0975 2.86737,-8.1879 2.89924,-3.0904 7.61448,-3.0904 h 14.71919 q 0.73277,0 0.89207,-0.1912 0.19116,-0.1593 0.19116,-0.8921 v -3.2815 q 0,-0.9239 0.28674,-1.1788 0.31859,-0.2549 1.43369,-0.2549 h 1.40182 q 0.95579,0.032 1.40183,0.7328 l 9.1756,14.5917 q 0.28674,0.5416 0.28674,1.3381 v 2.5807 q 0,0.7965 -0.38232,1.0514 -0.35045,0.2867 -1.43368,0.2867 h -4.30107 q -0.95579,0 -1.24253,0.2867 -0.28673,0.3186 -0.28673,1.3063 v 5.894 q 0,1.1788 -0.44604,1.5293 -0.41418,0.3504 -1.81601,0.3504 h -1.87972 q -1.52927,0 -2.1346,-0.446 -0.57348,-0.446 -0.57348,-1.6248 v -5.7666 q 0,-0.8921 -0.31859,-1.2107 -0.3186,-0.3186 -1.21067,-0.3186 z"
                 inkscape:connector-curvature="0" />
            </g>
            <g
               id="flowRoot4656"
               style="font-style:normal;font-weight:normal;font-size:40px;line-height:1.25;font-family:sans-serif;letter-spacing:0px;word-spacing:0px;fill:#000000;fill-opacity:1;stroke:none" />
            <g
               id="flowRoot4664"
               style="font-style:normal;font-weight:normal;font-size:40px;line-height:1.25;font-family:sans-serif;letter-spacing:0px;word-spacing:0px;fill:#000000;fill-opacity:1;stroke:none" />
          </g>
          <g
             id="flowRoot4737"
             style="font-style:normal;font-weight:normal;font-size:40px;line-height:1.25;font-family:sans-serif;letter-spacing:0px;word-spacing:0px;fill:#000000;fill-opacity:1;stroke:none" />
        </g>
      </g>
    </g>
  </g>
</svg>
